<?xml version="1.0" encoding="UTF-8"?><svg id="_레이어_2" xmlns="http://www.w3.org/2000/svg" viewBox="0 0 1951 2501"><defs><style>.cls-1{fill:#f1ca90;}.cls-1,.cls-2,.cls-3,.cls-4,.cls-5,.cls-6,.cls-7,.cls-8,.cls-9{stroke:#000;stroke-miterlimit:10;}.cls-10,.cls-6{fill:#fff;}.cls-2{fill:none;}.cls-3{fill:#c69c6d;}.cls-4,.cls-11{fill:#a67c52;}.cls-5{fill:#e6e6e6;}.cls-7{fill:#8c6239;}.cls-8{fill:#c7b299;}.cls-9{fill:#f2f2f2;}</style></defs><g id="_레이어_1-2"><rect class="cls-11" x=".5" y="2234.5" width="1950" height="266"/><rect class="cls-9" x=".5" y=".5" width="297" height="2209"/><rect class="cls-9" x="1653.5" y=".5" width="297" height="2209"/><rect class="cls-1" x="-1080" y="1082" width="2186" height="23" transform="translate(-1080.5 1106.5) rotate(-90)"/><rect class="cls-1" x="-994" y="1082" width="2186" height="23" transform="translate(-994.5 1192.5) rotate(-90)"/><rect class="cls-1" x="-906" y="1082" width="2186" height="23" transform="translate(-906.5 1280.5) rotate(-90)"/><rect class="cls-8" x="-818.5" y="1093.38" width="2209" height="23.24" transform="translate(-819 1391) rotate(-90)"/><rect class="cls-8" x="560.5" y="1093.38" width="2209" height="23.24" transform="translate(560 2770) rotate(-90)"/><rect class="cls-1" x="672" y="1082" width="2186" height="23" transform="translate(671.5 2858.5) rotate(-90)"/><rect class="cls-1" x="758" y="1082" width="2186" height="23" transform="translate(757.5 2944.5) rotate(-90)"/><rect class="cls-1" x="846" y="1082" width="2186" height="23" transform="translate(845.5 3032.5) rotate(-90)"/><rect class="cls-1" x=".5" y="2209.5" width="1950" height="25"/><polygon class="cls-4" points="1699.5 2186.5 1699.5 .5 1676.5 .5 1676.5 2186.5 1676.5 2209.5 1699.5 2209.5 1950.5 2209.5 1950.5 2186.5 1699.5 2186.5"/><polygon class="cls-4" points="251.5 2186.5 251.5 .5 274.5 .5 274.5 2186.5 274.5 2209.5 251.5 2209.5 .5 2209.5 .5 2186.5 251.5 2186.5"/><line class="cls-6" x1="284.5" y1="2209.5" x2="261.5" y2="2209.5"/><rect class="cls-8" x="1699.5" y="2086.5" width="251" height="23"/><rect class="cls-8" x="1699.5" y="1971.5" width="251" height="23"/><rect class="cls-8" x="1699.5" y="1856.5" width="251" height="23"/><rect class="cls-8" x="1699.5" y="1381.5" width="251" height="23"/><rect class="cls-8" x="1699.5" y="1265.5" width="251" height="23"/><rect class="cls-8" x="1699.5" y="1140.5" width="251" height="23"/><rect class="cls-8" x="1699.5" y="1012.5" width="251" height="23"/><rect class="cls-8" x="1699.5" y="883.5" width="251" height="23"/><rect class="cls-8" x="1699.5" y="345.5" width="251" height="23"/><rect class="cls-8" x="1699.5" y="229.5" width="251" height="23"/><rect class="cls-8" x="1699.5" y="104.5" width="251" height="23"/><rect class="cls-8" x=".5" y="2086.5" width="251" height="23"/><rect class="cls-8" x=".5" y="1971.5" width="251" height="23"/><rect class="cls-8" x=".5" y="1856.5" width="251" height="23"/><rect class="cls-8" x=".5" y="1381.5" width="251" height="23"/><rect class="cls-8" x=".5" y="1265.5" width="251" height="23"/><rect class="cls-8" x=".5" y="1140.5" width="251" height="23"/><rect class="cls-8" x=".5" y="1012.5" width="251" height="23"/><rect class="cls-8" x=".5" y="883.5" width="251" height="23"/><rect class="cls-8" x=".5" y="345.5" width="251" height="23"/><rect class="cls-8" x=".5" y="229.5" width="251" height="23"/><rect class="cls-8" x=".5" y="104.5" width="251" height="23"/><rect class="cls-8" x="1.5" y="2385.5" width="1949" height="115"/><polygon class="cls-10" points="1598.14 2283.86 1707.53 2258.76 1850.38 2308.31 1850.38 2323.76 1869.05 2330.84 1869.05 2345.64 1845.88 2354.64 1829.79 2371.37 1845.88 2375.88 1845.88 2398.4 1833.65 2404.19 1853.6 2411.27 1853.6 2433.79 1712.68 2487.2 1589.13 2438.94 1589.13 2415.13 1608.43 2406.12 1594.92 2402.26 1594.92 2379.74 1580.12 2376.52 1580.12 2354 1600.07 2334.7 1583.34 2328.26 1582.69 2310.89 1606.82 2304.77 1595.24 2299.63 1595.24 2284.83 1598.14 2283.86"/><polygon class="cls-2" points="1707.11 2258.76 1595.13 2284.5 1595.13 2299.3 1730.87 2361.08 1850.24 2323.76 1850.24 2308.61 1707.11 2258.76"/><polyline class="cls-2" points="1850.24 2308.61 1730.87 2337.69 1730.87 2360.76"/><line class="cls-2" x1="1730.87" y1="2337.69" x2="1595.13" y2="2284.5"/><line class="cls-2" x1="1750.42" y1="2393.25" x2="1750.42" y2="2371.16"/><polyline class="cls-6" points="1785.8 2416.42 1785.8 2390.92 1763.11 2388.14"/><line class="cls-2" x1="1785.8" y1="2390.92" x2="1808.54" y2="2369.86"/><polyline class="cls-2" points="1595.13 2379.58 1595.13 2402.28 1739.32 2446.66 1845.59 2398.31 1845.59 2375.71 1829.82 2371.16"/><line class="cls-2" x1="1739.32" y1="2446.66" x2="1739.32" y2="2420.99"/><polyline class="cls-2" points="1601.81 2380.87 1739.32 2420.99 1760.65 2411.56"/><line class="cls-2" x1="1845.59" y1="2375.71" x2="1811.87" y2="2389.62"/><polyline class="cls-2" points="1608.34 2406.12 1589.32 2415.35 1589.32 2438.94 1712.92 2487.2 1853.41 2433.79 1853.41 2411.27 1833.34 2404.19"/><polyline class="cls-2" points="1853.41 2411.27 1712.92 2460.91 1712.92 2487.2"/><line class="cls-2" x1="1712.92" y1="2460.91" x2="1589.32" y2="2415.35"/><polyline class="cls-2" points="1745.93 2356.37 1745.93 2334.02 1609.59 2281.18"/><polyline class="cls-2" points="1732.42 2328.78 1717.14 2332.12 1717.14 2354.97"/><polyline class="cls-2" points="1624.05 2286.74 1608.61 2289.72 1608.61 2305.44"/><polyline class="cls-2" points="1672.17 2305.44 1658.09 2309.17 1658.09 2327.95"/><polyline class="cls-2" points="1698.73 2315.73 1686.01 2320.11 1686.01 2340.66"/><polyline class="cls-2" points="1645.61 2295.14 1631.09 2298.59 1631.09 2315.67"/><line class="cls-2" x1="1732.46" y1="2343.7" x2="1806.89" y2="2325.01"/><line class="cls-2" x1="1732.46" y1="2348.85" x2="1786.86" y2="2334.7"/><line class="cls-2" x1="1732.46" y1="2354.64" x2="1839.15" y2="2323.76"/><line class="cls-2" x1="1868.72" y1="2341.77" x2="1763.11" y2="2382.67"/><line class="cls-2" x1="1868.72" y1="2337.69" x2="1794.78" y2="2364.94"/><polyline class="cls-2" points="1739.32 2400.98 1785.8 2408.91 1800.28 2393.25"/><line class="cls-2" x1="1579.82" y1="2360.76" x2="1618.77" y2="2368.1"/><line class="cls-2" x1="1579.82" y1="2368.1" x2="1645.84" y2="2379.74"/><polyline class="cls-2" points="1702.92 2415.35 1739.32 2426.9 1763.09 2416.42"/><line class="cls-2" x1="1739.32" y1="2433.82" x2="1776.3" y2="2417.06"/><line class="cls-2" x1="1853.41" y1="2419.01" x2="1763.11" y2="2451.54"/><line class="cls-2" x1="1853.41" y1="2425.44" x2="1790.56" y2="2449.24"/><line class="cls-2" x1="1589.33" y1="2431.14" x2="1621.01" y2="2443.45"/><line class="cls-2" x1="1589.24" y1="2422.82" x2="1638.26" y2="2441.61"/><polygon class="cls-10" points="1591.7 2140.36 1701.1 2115.27 1843.95 2164.82 1843.95 2180.26 1862.61 2187.34 1862.61 2202.14 1839.45 2211.15 1823.36 2227.88 1839.45 2232.38 1839.45 2254.9 1827.22 2260.69 1847.17 2267.77 1847.17 2290.3 1706.24 2343.7 1582.69 2295.44 1582.69 2271.63 1602 2262.63 1588.49 2258.76 1588.49 2236.24 1573.68 2233.02 1573.68 2210.5 1593.63 2191.2 1576.9 2184.76 1576.26 2167.39 1600.39 2161.28 1588.81 2156.13 1588.81 2141.33 1591.7 2140.36"/><polyline class="cls-2" points="1843.8 2165.11 1724.44 2194.19 1724.44 2217.26"/><line class="cls-8" x1="1724.44" y1="2194.19" x2="1588.7" y2="2141.01"/><line class="cls-2" x1="1743.98" y1="2249.76" x2="1743.98" y2="2227.66"/><polyline class="cls-6" points="1779.37 2272.92 1779.37 2247.42 1756.68 2244.64"/><line class="cls-2" x1="1779.37" y1="2247.42" x2="1802.11" y2="2226.36"/><line class="cls-2" x1="1732.89" y1="2303.17" x2="1732.89" y2="2277.49"/><polyline class="cls-2" points="1595.37 2237.38 1732.89 2277.49 1754.22 2268.06"/><line class="cls-2" x1="1839.16" y1="2232.21" x2="1805.43" y2="2246.12"/><polyline class="cls-2" points="1601.9 2262.63 1582.89 2271.85 1582.89 2295.44 1706.48 2343.7 1846.97 2290.3 1846.97 2267.77 1826.9 2260.69"/><polyline class="cls-2" points="1846.97 2267.77 1706.48 2317.41 1706.48 2343.7"/><line class="cls-2" x1="1706.48" y1="2317.41" x2="1582.89" y2="2271.85"/><polyline class="cls-2" points="1739.5 2212.87 1739.5 2190.52 1603.15 2137.68"/><polyline class="cls-2" points="1725.99 2185.29 1710.71 2188.62 1710.71 2211.47"/><polyline class="cls-2" points="1617.61 2143.24 1602.17 2146.22 1602.17 2161.94"/><polyline class="cls-2" points="1665.74 2161.94 1651.65 2165.67 1651.65 2184.46"/><polyline class="cls-2" points="1692.29 2172.23 1679.57 2176.61 1679.57 2197.16"/><polyline class="cls-2" points="1639.17 2151.64 1624.66 2155.09 1624.66 2172.17"/><line class="cls-2" x1="1726.02" y1="2200.21" x2="1800.45" y2="2181.51"/><line class="cls-2" x1="1726.02" y1="2205.35" x2="1780.42" y2="2191.2"/><line class="cls-2" x1="1726.02" y1="2211.15" x2="1832.71" y2="2180.26"/><line class="cls-2" x1="1862.29" y1="2198.28" x2="1756.68" y2="2239.17"/><line class="cls-2" x1="1862.29" y1="2194.19" x2="1788.35" y2="2221.44"/><polyline class="cls-2" points="1732.89 2257.48 1779.37 2265.41 1793.85 2249.76"/><line class="cls-2" x1="1573.38" y1="2217.26" x2="1612.34" y2="2224.61"/><line class="cls-2" x1="1573.38" y1="2224.61" x2="1639.4" y2="2236.24"/><polyline class="cls-2" points="1696.48 2271.85 1732.89 2283.4 1756.66 2272.92"/><line class="cls-2" x1="1732.89" y1="2290.33" x2="1769.86" y2="2273.56"/><line class="cls-2" x1="1846.97" y1="2275.52" x2="1756.68" y2="2308.05"/><line class="cls-2" x1="1846.97" y1="2281.95" x2="1784.12" y2="2305.74"/><line class="cls-2" x1="1582.9" y1="2287.65" x2="1614.58" y2="2299.95"/><line class="cls-2" x1="1582.8" y1="2279.32" x2="1631.83" y2="2298.12"/><polygon class="cls-3" points="1757.3 2244.68 1779.18 2247.26 1801.7 2226.66 1757.3 2244.68"/><polygon class="cls-7" points="1764.38 2388.18 1786.26 2390.75 1808.78 2370.16 1764.38 2388.18"/><polygon class="cls-8" points="1822.94 2227.95 1837.42 2232.13 1807.17 2244.36 1822.94 2227.95"/><polygon class="cls-8" points="1829.37 2371.45 1843.85 2375.63 1813.61 2387.86 1829.37 2371.45"/><polygon class="cls-8" points="1605.12 2239.86 1732.53 2277.18 1753.76 2268.17 1605.12 2239.86"/><polygon class="cls-8" points="1611.55 2383.35 1738.96 2420.68 1760.2 2411.67 1611.55 2383.35"/><polygon class="cls-3" points="1601.3 2263.19 1583.92 2271.55 1706.79 2317.07 1846.42 2267.53 1827.12 2261.09 1732.53 2303.56 1601.3 2263.19"/><polygon class="cls-3" points="1607.73 2406.69 1590.36 2415.05 1713.22 2460.57 1852.86 2411.02 1833.56 2404.59 1738.96 2447.06 1607.73 2406.69"/><polygon class="cls-7" points="1739.64 2331.58 1823.26 2299.7 1849.64 2308.71 1744.75 2333.8 1739.64 2331.58"/><polygon class="cls-8" points="1700.35 2115.02 1603.83 2137.54 1739.61 2190.31 1842.56 2165.21 1700.35 2115.02"/><polygon class="cls-3" points="1600.29 2161.03 1576.48 2167.46 1745.17 2227.72 1862.19 2187.41 1844.17 2180.33 1724.48 2217.01 1600.29 2161.03"/><polygon class="cls-8" points="1607.05 2305.49 1582.92 2310.96 1751.6 2371.22 1868.63 2330.91 1850.93 2324.15 1730.6 2361.47 1607.05 2305.49"/><polyline class="cls-2" points="1576.33 2167.6 1743.98 2227.88 1862.29 2187.29"/><polygon class="cls-2" points="1700.67 2115.27 1588.7 2141.01 1588.7 2155.81 1724.44 2217.58 1843.8 2180.26 1843.8 2165.11 1700.67 2115.27"/><polygon class="cls-3" points="1593.86 2191.92 1573.91 2210.58 1712.26 2237.6 1593.86 2191.92"/><polygon class="cls-7" points="1600.61 2335.74 1580.34 2354.72 1718.69 2381.74 1600.61 2335.74"/><line class="cls-2" x1="1573.38" y1="2210.5" x2="1715.52" y2="2238.71"/><polyline class="cls-2" points="1600.63 2161.24 1576.33 2167.6 1576.55 2184.76 1743.98 2249.76 1862.29 2202.14 1862.29 2191.51 1862.29 2187.29 1843.8 2180.26"/><polyline class="cls-2" points="1839.16 2211.45 1779.37 2272.92 1573.38 2233.13 1573.38 2210.5 1593.92 2191.51"/><polyline class="cls-2" points="1588.7 2236.09 1588.7 2258.78 1732.89 2303.17 1839.16 2254.81 1839.16 2232.21 1823.39 2227.66"/><polyline class="cls-2" points="1582.77 2311.1 1750.42 2371.37 1868.72 2330.79"/><polyline class="cls-2" points="1607.07 2304.74 1582.77 2311.1 1582.99 2328.26 1750.42 2393.25 1868.72 2345.64 1868.72 2335 1868.72 2330.79 1850.24 2323.76"/><polyline class="cls-2" points="1845.59 2354.94 1785.8 2416.42 1579.82 2376.63 1579.82 2354 1600.36 2335"/><line class="cls-2" x1="1721.96" y1="2382.21" x2="1579.82" y2="2354"/><polygon class="cls-4" points="349.45 2445.42 349.45 2106.05 336.39 2103.68 321.88 2106.64 321.88 2127.64 251.51 2114.93 251.51 2088.87 237.73 2086.5 223.22 2089.46 223.22 2115.29 139.06 2133.29 139.06 2112.88 125.28 2110.19 110.77 2113.74 110.77 2452.44 126 2455.49 208.34 2437.42 208.34 2470 222.85 2472.96 349.45 2445.42"/><line class="cls-2" x1="321.88" y1="2106.64" x2="334.58" y2="2109.3"/><polyline class="cls-2" points="209.73 2131.36 222.85 2132.99 222.85 2472.96"/><line class="cls-2" x1="237.36" y1="2130.37" x2="222.85" y2="2132.99"/><polyline class="cls-2" points="110.77 2113.74 124.19 2115.65 124.19 2141.88 209.73 2157.48 209.73 2131.36 223.58 2127.66 237.36 2130.37 237.36 2156.68 334.58 2135.81 334.58 2109.3 349.45 2106.05"/><line class="cls-2" x1="139.06" y1="2112.88" x2="124.19" y2="2115.65"/><polyline class="cls-2" points="251.51 2088.87 236.36 2092.13 236.36 2130.17"/><line class="cls-2" x1="223.22" y1="2089.46" x2="235.91" y2="2092.13"/><polyline class="cls-2" points="223.22 2115.29 236.36 2117.97 251.51 2114.93"/><polyline class="cls-2" points="124.19 2141.88 236.36 2117.97 334.58 2135.81"/><polyline class="cls-2" points="139.06 2133.29 139.06 2138.71 209.73 2151.23"/><polyline class="cls-2" points="321.88 2127.64 321.88 2133.5 237.36 2151.23 237.36 2130.37 289.25 2140.35"/><path class="cls-2" d="m289.25,2140.35l-51.89-9.98,51.89,9.98Z"/><line class="cls-2" x1="209.73" y1="2134.6" x2="167.74" y2="2143.79"/><polyline class="cls-2" points="110.77 2152.54 222.85 2172.1 349.45 2144.88"/><polyline class="cls-2" points="110.77 2410.22 222.85 2429.78 349.45 2402.96"/><line class="cls-2" x1="208.34" y1="2427.25" x2="208.34" y2="2437.42"/><line class="cls-2" x1="126" y1="2455.49" x2="126" y2="2412.88"/><polyline class="cls-2" points="334.58 2406.27 334.58 2436.24 237.77 2457.2 237.77 2431.74 237.77 2426.62"/><polyline class="cls-2" points="237.77 2431.74 252.6 2428.54 252.6 2423.48"/><polyline class="cls-2" points="319.71 2409.26 319.71 2433.46 334.58 2436.24"/><polyline class="cls-2" points="139.62 2415.26 139.62 2440.26 205.49 2426.75"/><line class="cls-2" x1="319.71" y1="2433.46" x2="237.77" y2="2450.85"/><line class="cls-2" x1="139.62" y1="2434.14" x2="188.21" y2="2423.73"/><polygon class="cls-8" points="124.19 2169.81 124.19 2398.07 208.34 2412.88 208.34 2183.93 124.19 2169.81"/><polygon class="cls-5" points="135.8 2182.16 135.8 2388.6 196.37 2399.26 196.37 2192.32 135.8 2182.16"/><polygon class="cls-8" points="237.36 2412.88 334.58 2392.18 334.58 2164.89 237.77 2185.31 237.36 2412.88"/><polygon class="cls-5" points="251.58 2396.89 320.43 2382.23 320.43 2181.38 251.86 2195.84 251.58 2396.89"/><line class="cls-2" x1="124.19" y1="2188.33" x2="152.52" y2="2193.41"/><line class="cls-2" x1="124.19" y1="2195.44" x2="152.52" y2="2200.51"/><line class="cls-2" x1="140.94" y1="2172.62" x2="140.94" y2="2209.81"/><line class="cls-2" x1="147.46" y1="2173.81" x2="147.46" y2="2210.99"/><line class="cls-2" x1="177.99" y1="2197.55" x2="208.2" y2="2202.88"/><line class="cls-2" x1="177.99" y1="2204.66" x2="208.2" y2="2209.99"/><line class="cls-2" x1="184.18" y1="2179.73" x2="184.18" y2="2216.91"/><line class="cls-2" x1="190.7" y1="2180.91" x2="190.7" y2="2218.1"/><line class="cls-2" x1="177.4" y1="2381.75" x2="208.2" y2="2387.08"/><line class="cls-2" x1="177.4" y1="2389.45" x2="208.2" y2="2394.78"/><line class="cls-2" x1="183.91" y1="2375.53" x2="183.91" y2="2408.7"/><line class="cls-2" x1="190.43" y1="2377.9" x2="190.43" y2="2409.88"/><line class="cls-2" x1="124.19" y1="2372.53" x2="152.52" y2="2377.6"/><line class="cls-2" x1="124.19" y1="2379.64" x2="152.52" y2="2384.71"/><line class="cls-2" x1="140.68" y1="2366.65" x2="140.68" y2="2401"/><line class="cls-2" x1="147.19" y1="2368.42" x2="147.19" y2="2402.18"/><line class="cls-2" x1="237.49" y1="2208.41" x2="273.07" y2="2200.9"/><line class="cls-2" x1="237.77" y1="2216.32" x2="273.35" y2="2208.8"/><line class="cls-2" x1="237.77" y1="2383.93" x2="273.94" y2="2377.6"/><line class="cls-2" x1="237.54" y1="2391.39" x2="273.71" y2="2385.06"/><line class="cls-2" x1="299.98" y1="2371.58" x2="334.33" y2="2365.66"/><line class="cls-2" x1="299.62" y1="2378.73" x2="334.57" y2="2372.8"/><line class="cls-2" x1="297.66" y1="2195.9" x2="334.38" y2="2187.01"/><line class="cls-2" x1="297.58" y1="2203.46" x2="334.3" y2="2194.58"/><line class="cls-2" x1="258.61" y1="2180.91" x2="258.61" y2="2221.24"/><line class="cls-2" x1="265.71" y1="2179.14" x2="265.71" y2="2219.47"/><line class="cls-2" x1="306.58" y1="2171.44" x2="306.58" y2="2211.77"/><line class="cls-2" x1="313.69" y1="2169.66" x2="313.69" y2="2209.99"/><line class="cls-2" x1="258.25" y1="2373.46" x2="258.61" y2="2408.36"/><line class="cls-2" x1="265.36" y1="2371.09" x2="265.65" y2="2406.92"/><line class="cls-2" x1="306.82" y1="2363.39" x2="307.17" y2="2398.29"/><line class="cls-2" x1="313.93" y1="2361.02" x2="314.21" y2="2396.85"/><polygon class="cls-8" points="237.49 2151.8 237.49 2130.37 290.25 2140.02 237.49 2151.8"/><polygon class="cls-8" points="166.7 2143.24 209.82 2134.87 209.82 2151.6 166.7 2143.24"/><polygon class="cls-8" points="139.68 2415.43 139.68 2434.09 187.94 2423.8 139.68 2415.43"/><polygon class="cls-8" points="252.29 2423.8 252.29 2428.3 238.13 2431.52 238.13 2450.82 319.85 2433.45 319.85 2409.64 252.29 2423.8"/></g></svg>