<?xml version="1.0" encoding="UTF-8"?><svg id="_레이어_1" xmlns="http://www.w3.org/2000/svg" viewBox="0 0 1950 3200"><defs><style>.cls-1{stroke-width:1.5px;}.cls-1,.cls-2,.cls-3,.cls-4,.cls-5,.cls-6,.cls-7,.cls-8,.cls-9,.cls-10,.cls-11,.cls-12,.cls-13,.cls-14,.cls-15,.cls-16,.cls-17,.cls-18,.cls-19{stroke:#000;stroke-miterlimit:10;}.cls-1,.cls-12{fill:none;}.cls-2,.cls-5,.cls-14{fill:#c69c6d;}.cls-2,.cls-6,.cls-11,.cls-13,.cls-16{stroke-width:.5px;}.cls-3{fill:#a67c52;}.cls-3,.cls-4,.cls-7,.cls-8,.cls-9,.cls-10,.cls-12,.cls-14,.cls-18{stroke-width:2px;}.cls-20,.cls-18{fill:#fff;}.cls-4{fill:#e6e6e6;}.cls-6,.cls-9,.cls-19,.cls-21{fill:#f2f2f2;}.cls-7,.cls-16{fill:#f1ca90;}.cls-22,.cls-8,.cls-13,.cls-17{fill:#c7b299;}.cls-10,.cls-11,.cls-15{fill:#8c6239;}</style></defs><rect class="cls-22" x="-5" y="2983" width="1955" height="232"/><rect class="cls-8" x="-414.3" y="343.68" width="751.14" height="2640.52"/><rect class="cls-3" x="-362.33" y="415.75" width="647.2" height="2512.75"/><path d="m248.62,467.54v2412.85H-326.08V467.54H248.62m2-2H-328.08v2416.85H250.62V465.54h0Z"/><line class="cls-12" x1="-361.15" y1="415.86" x2="283.69" y2="415.86"/><line class="cls-12" x1="-328.08" y1="515.12" x2="250.62" y2="515.12"/><line class="cls-12" x1="-328.08" y1="562.87" x2="250.62" y2="562.87"/><line class="cls-12" x1="-328.08" y1="632.66" x2="250.62" y2="632.66"/><line class="cls-12" x1="-328.08" y1="680.41" x2="250.62" y2="680.41"/><line class="cls-12" x1="-328.08" y1="753.87" x2="250.62" y2="753.87"/><line class="cls-12" x1="-328.08" y1="801.62" x2="250.62" y2="801.62"/><line class="cls-12" x1="-328.08" y1="2538.96" x2="250.62" y2="2538.96"/><line class="cls-12" x1="-328.08" y1="2586.71" x2="250.62" y2="2586.71"/><line class="cls-12" x1="-328.08" y1="2656.5" x2="250.62" y2="2656.5"/><line class="cls-12" x1="-328.08" y1="2704.25" x2="250.62" y2="2704.25"/><line class="cls-12" x1="-328.08" y1="2777.71" x2="250.62" y2="2777.71"/><line class="cls-12" x1="-328.08" y1="2825.46" x2="250.62" y2="2825.46"/><line class="cls-12" x1="-328.08" y1="1565.61" x2="250.62" y2="1565.61"/><line class="cls-12" x1="-328.08" y1="1613.36" x2="250.62" y2="1613.36"/><line class="cls-12" x1="-328.08" y1="1444.4" x2="250.62" y2="1444.4"/><line class="cls-12" x1="-328.08" y1="1492.15" x2="250.62" y2="1492.15"/><line class="cls-12" x1="-328.08" y1="1925.57" x2="250.62" y2="1925.57"/><line class="cls-12" x1="-328.08" y1="1973.32" x2="250.62" y2="1973.32"/><line class="cls-12" x1="-328.08" y1="1683.15" x2="250.62" y2="1683.15"/><line class="cls-12" x1="-328.08" y1="1730.9" x2="250.62" y2="1730.9"/><line class="cls-12" x1="-328.08" y1="1804.36" x2="250.62" y2="1804.36"/><line class="cls-12" x1="-328.08" y1="1852.11" x2="250.62" y2="1852.11"/><line class="cls-12" x1="-361.15" y1="2928.31" x2="283.69" y2="2928.31"/><line class="cls-12" x1="284.87" y1="414.12" x2="284.87" y2="2930.14"/><line class="cls-12" x1="164.41" y1="465.54" x2="164.41" y2="2882.39"/><line class="cls-12" x1="195.11" y1="465.54" x2="195.11" y2="2882.39"/><line class="cls-12" x1="60.48" y1="465.54" x2="60.48" y2="2882.39"/><line class="cls-12" x1="91.18" y1="465.54" x2="91.18" y2="2882.39"/><rect class="cls-7" x="164.41" y="467.38" width="30.71" height="2413.18"/><rect class="cls-7" x="60.48" y="467.38" width="30.71" height="2413.18"/><rect class="cls-18" x="-326.9" y="515.12" width="576.34" height="47.75"/><rect class="cls-18" x="-326.9" y="632.66" width="576.34" height="47.75"/><rect class="cls-8" x="-326.9" y="753.87" width="576.34" height="47.75"/><rect class="cls-8" x="-326.9" y="1444.4" width="576.34" height="47.75"/><rect class="cls-8" x="-326.9" y="1565.61" width="576.34" height="47.75"/><rect class="cls-8" x="-326.9" y="1683.15" width="576.34" height="47.75"/><rect class="cls-8" x="-326.9" y="1804.36" width="576.34" height="47.75"/><rect class="cls-8" x="-326.9" y="1925.57" width="576.34" height="47.75"/><rect class="cls-8" x="-326.9" y="2538.96" width="576.34" height="47.75"/><rect class="cls-8" x="-326.9" y="2656.5" width="576.34" height="47.75"/><rect class="cls-8" x="-326.9" y="2777.71" width="576.34" height="47.75"/><rect class="cls-8" x="1613.86" y="343.68" width="751.14" height="2640.52"/><rect class="cls-3" x="1665.83" y="415.75" width="647.2" height="2512.75"/><path d="m2276.78,467.54v2412.85h-574.7V467.54h574.7m2-2h-578.7v2416.85h578.7V465.54h0Z"/><line class="cls-12" x1="1667.01" y1="415.86" x2="2311.85" y2="415.86"/><line class="cls-12" x1="1700.08" y1="515.12" x2="2278.78" y2="515.12"/><line class="cls-12" x1="1700.08" y1="562.87" x2="2278.78" y2="562.87"/><line class="cls-12" x1="1700.08" y1="632.66" x2="2278.78" y2="632.66"/><line class="cls-12" x1="1700.08" y1="680.41" x2="2278.78" y2="680.41"/><line class="cls-12" x1="1700.08" y1="753.87" x2="2278.78" y2="753.87"/><line class="cls-12" x1="1700.08" y1="801.62" x2="2278.78" y2="801.62"/><line class="cls-12" x1="1700.08" y1="2538.96" x2="2278.78" y2="2538.96"/><line class="cls-12" x1="1700.08" y1="2586.71" x2="2278.78" y2="2586.71"/><line class="cls-12" x1="1700.08" y1="2656.5" x2="2278.78" y2="2656.5"/><line class="cls-12" x1="1700.08" y1="2704.25" x2="2278.78" y2="2704.25"/><line class="cls-12" x1="1700.08" y1="2777.71" x2="2278.78" y2="2777.71"/><line class="cls-12" x1="1700.08" y1="2825.46" x2="2278.78" y2="2825.46"/><line class="cls-12" x1="1700.08" y1="1565.61" x2="2278.78" y2="1565.61"/><line class="cls-12" x1="1700.08" y1="1613.36" x2="2278.78" y2="1613.36"/><line class="cls-12" x1="1700.08" y1="1444.4" x2="2278.78" y2="1444.4"/><line class="cls-12" x1="1700.08" y1="1492.15" x2="2278.78" y2="1492.15"/><line class="cls-12" x1="1700.08" y1="1925.57" x2="2278.78" y2="1925.57"/><line class="cls-12" x1="1700.08" y1="1973.32" x2="2278.78" y2="1973.32"/><line class="cls-12" x1="1700.08" y1="1683.15" x2="2278.78" y2="1683.15"/><line class="cls-12" x1="1700.08" y1="1730.9" x2="2278.78" y2="1730.9"/><line class="cls-12" x1="1700.08" y1="1804.36" x2="2278.78" y2="1804.36"/><line class="cls-12" x1="1700.08" y1="1852.11" x2="2278.78" y2="1852.11"/><line class="cls-12" x1="1667.01" y1="2928.31" x2="2311.85" y2="2928.31"/><line class="cls-12" x1="1665.83" y1="414.12" x2="1665.83" y2="2930.14"/><line class="cls-12" x1="1748.5" y1="465.54" x2="1748.5" y2="2882.39"/><line class="cls-12" x1="1779.21" y1="465.54" x2="1779.21" y2="2882.39"/><line class="cls-12" x1="1861.88" y1="465.54" x2="1861.88" y2="2882.39"/><line class="cls-12" x1="1892.59" y1="465.54" x2="1892.59" y2="2882.39"/><rect class="cls-16" x="1862.88" y="472.38" width="30.71" height="2408.12"/><rect class="cls-7" x="1748.5" y="467.38" width="30.71" height="2413.18"/><rect class="cls-18" x="1701.26" y="515.12" width="576.34" height="47.75"/><rect class="cls-18" x="1701.26" y="632.66" width="576.34" height="47.75"/><rect class="cls-17" x="1701.26" y="753.87" width="576.34" height="47.75"/><rect class="cls-17" x="1701.26" y="1444.4" width="576.34" height="47.75"/><rect class="cls-17" x="1701.26" y="1565.61" width="576.34" height="47.75"/><rect class="cls-17" x="1701.26" y="1683.15" width="576.34" height="47.75"/><rect class="cls-17" x="1701.26" y="1804.36" width="576.34" height="47.75"/><rect class="cls-8" x="1701" y="1925.57" width="576.6" height="47.75"/><rect class="cls-17" x="1701.26" y="2538.96" width="576.34" height="47.75"/><rect class="cls-8" x="1701.26" y="2656.5" width="576.34" height="47.75"/><rect class="cls-8" x="1701.26" y="2777.71" width="576.34" height="47.75"/><rect class="cls-7" x="15.27" y="2928.7" width="1912.38" height="55.8"/><rect class="cls-7" x="-5" y="2928.7" width="1959.65" height="55.8"/><polygon class="cls-3" points="508 3130.6 508 2603.2 487.71 2599.52 465.16 2604.12 465.16 2636.77 355.8 2617.01 355.8 2576.51 334.38 2572.83 311.83 2577.43 311.83 2617.58 181.04 2645.54 181.04 2613.82 159.62 2609.65 137.07 2615.17 137.07 3141.51 160.75 3146.25 288.71 3118.17 288.71 3168.8 311.26 3173.4 508 3130.6"/><line class="cls-12" x1="465.16" y1="2604.12" x2="484.89" y2="2608.27"/><polyline class="cls-12" points="290.86 2642.55 311.26 2645.08 311.26 3173.4"/><line class="cls-12" x1="333.81" y1="2641" x2="311.26" y2="2645.08"/><polyline class="cls-12" points="137.07 2615.17 157.93 2618.13 157.93 2658.89 290.86 2683.14 290.86 2642.55 312.39 2636.8 333.81 2641 333.81 2681.9 484.89 2649.46 484.89 2608.27 508 2603.2"/><line class="cls-12" x1="181.04" y1="2613.82" x2="157.93" y2="2618.13"/><polyline class="cls-12" points="355.8 2576.51 332.25 2581.57 332.25 2640.69"/><line class="cls-12" x1="311.83" y1="2577.43" x2="331.56" y2="2581.57"/><polyline class="cls-12" points="311.83 2617.58 332.25 2621.73 355.8 2617.01"/><polyline class="cls-12" points="157.93 2658.89 332.25 2621.73 484.89 2649.46"/><polyline class="cls-12" points="181.04 2645.54 181.04 2653.96 290.86 2673.43"/><polyline class="cls-12" points="465.16 2636.77 465.16 2645.87 333.81 2673.43 333.81 2641 414.45 2656.51"/><path class="cls-12" d="m414.45,2656.51l-80.64-15.51,80.64,15.51Z"/><line class="cls-12" x1="290.86" y1="2647.58" x2="225.61" y2="2661.86"/><polyline class="cls-12" points="137.07 2675.47 311.26 2705.86 508 2663.56"/><polyline class="cls-12" points="137.07 3075.9 311.26 3106.3 508 3064.62"/><line class="cls-12" x1="288.71" y1="3102.36" x2="288.71" y2="3118.17"/><line class="cls-12" x1="160.75" y1="3146.25" x2="160.75" y2="3080.03"/><polyline class="cls-12" points="484.89 3069.77 484.89 3116.33 334.44 3148.91 334.44 3109.34 334.44 3101.39"/><polyline class="cls-12" points="334.44 3109.34 357.49 3104.37 357.49 3096.5"/><polyline class="cls-12" points="461.77 3074.41 461.77 3112.01 484.89 3116.33"/><polyline class="cls-12" points="181.92 3083.73 181.92 3122.59 284.27 3101.59"/><line class="cls-12" x1="461.77" y1="3112.01" x2="334.44" y2="3139.04"/><line class="cls-12" x1="181.92" y1="3113.07" x2="257.42" y2="3096.9"/><polygon class="cls-8" points="157.93 2702.3 157.93 3057.02 288.71 3080.03 288.71 2724.24 157.93 2702.3"/><polygon class="cls-4" points="175.97 2721.48 175.97 3042.3 270.11 3058.86 270.11 2737.27 175.97 2721.48"/><polygon class="cls-8" points="333.81 3080.03 484.89 3047.86 484.89 2694.66 334.44 2726.38 333.81 3080.03"/><polygon class="cls-4" points="355.9 3055.18 462.9 3032.4 462.9 2720.28 356.35 2742.74 355.9 3055.18"/><line class="cls-12" x1="157.93" y1="2731.08" x2="201.96" y2="2738.96"/><line class="cls-12" x1="157.93" y1="2742.13" x2="201.96" y2="2750.01"/><line class="cls-12" x1="183.97" y1="2706.67" x2="183.97" y2="2764.45"/><line class="cls-12" x1="194.1" y1="2708.51" x2="194.1" y2="2766.29"/><line class="cls-12" x1="241.54" y1="2745.41" x2="288.48" y2="2753.69"/><line class="cls-12" x1="241.54" y1="2756.45" x2="288.48" y2="2764.74"/><line class="cls-12" x1="251.16" y1="2717.71" x2="251.16" y2="2775.5"/><line class="cls-12" x1="261.29" y1="2719.55" x2="261.29" y2="2777.34"/><line class="cls-12" x1="240.62" y1="3031.65" x2="288.48" y2="3039.94"/><line class="cls-12" x1="240.62" y1="3043.62" x2="288.48" y2="3051.9"/><line class="cls-12" x1="250.75" y1="3021.99" x2="250.75" y2="3073.53"/><line class="cls-12" x1="260.87" y1="3025.67" x2="260.87" y2="3075.37"/><line class="cls-12" x1="157.93" y1="3017.33" x2="201.96" y2="3025.21"/><line class="cls-12" x1="157.93" y1="3028.37" x2="201.96" y2="3036.26"/><line class="cls-12" x1="183.56" y1="3008.18" x2="183.56" y2="3061.57"/><line class="cls-12" x1="193.68" y1="3010.95" x2="193.68" y2="3063.41"/><line class="cls-12" x1="334.01" y1="2762.29" x2="389.3" y2="2750.6"/><line class="cls-12" x1="334.44" y1="2774.58" x2="389.73" y2="2762.89"/><line class="cls-12" x1="334.44" y1="3035.05" x2="390.65" y2="3025.21"/><line class="cls-12" x1="334.08" y1="3046.64" x2="390.29" y2="3036.8"/><line class="cls-12" x1="431.11" y1="3015.85" x2="484.5" y2="3006.65"/><line class="cls-12" x1="430.56" y1="3026.96" x2="484.87" y2="3017.76"/><line class="cls-12" x1="427.51" y1="2742.84" x2="484.58" y2="2729.03"/><line class="cls-12" x1="427.39" y1="2754.6" x2="484.45" y2="2740.79"/><line class="cls-12" x1="366.82" y1="2719.55" x2="366.82" y2="2782.22"/><line class="cls-12" x1="377.87" y1="2716.79" x2="377.87" y2="2779.46"/><line class="cls-12" x1="441.38" y1="2704.83" x2="441.38" y2="2767.5"/><line class="cls-12" x1="452.42" y1="2702.07" x2="452.42" y2="2764.74"/><line class="cls-12" x1="366.27" y1="3018.77" x2="366.82" y2="3073"/><line class="cls-12" x1="377.32" y1="3015.09" x2="377.76" y2="3070.77"/><line class="cls-12" x1="441.75" y1="3003.12" x2="442.3" y2="3057.36"/><line class="cls-12" x1="452.79" y1="2999.44" x2="453.24" y2="3055.13"/><polygon class="cls-20" points="1467.65 2863.89 1637.65 2824.89 1859.65 2901.89 1859.65 2925.89 1888.65 2936.89 1888.65 2959.89 1852.65 2973.89 1827.65 2999.89 1852.65 3006.89 1852.65 3041.89 1833.65 3050.89 1864.65 3061.89 1864.65 3096.89 1645.65 3179.89 1453.65 3104.89 1453.65 3067.89 1483.65 3053.89 1462.65 3047.89 1462.65 3012.89 1439.65 3007.89 1439.65 2972.89 1470.65 2942.89 1444.65 2932.89 1443.65 2905.89 1481.15 2896.39 1463.15 2888.39 1463.15 2865.39 1467.65 2863.89"/><polygon class="cls-12" points="1636.99 2824.89 1462.99 2864.89 1462.99 2887.89 1673.93 2983.89 1859.43 2925.89 1859.43 2902.34 1636.99 2824.89"/><polyline class="cls-12" points="1859.43 2902.34 1673.93 2947.53 1673.93 2983.39"/><line class="cls-12" x1="1673.93" y1="2947.53" x2="1462.99" y2="2864.89"/><line class="cls-12" x1="1704.3" y1="3033.89" x2="1704.3" y2="2999.55"/><polyline class="cls-18" points="1759.29 3069.89 1759.29 3030.26 1724.03 3025.94"/><line class="cls-12" x1="1759.29" y1="3030.26" x2="1794.63" y2="2997.53"/><polyline class="cls-12" points="1462.99 3012.64 1462.99 3047.91 1687.06 3116.89 1852.21 3041.75 1852.21 3006.62 1827.7 2999.55"/><line class="cls-12" x1="1687.06" y1="3116.89" x2="1687.06" y2="3076.98"/><polyline class="cls-12" points="1473.35 3014.65 1687.06 3076.98 1720.2 3062.33"/><line class="cls-12" x1="1852.21" y1="3006.62" x2="1799.8" y2="3028.24"/><polyline class="cls-12" points="1483.51 3053.89 1453.96 3068.22 1453.96 3104.89 1646.02 3179.89 1864.35 3096.89 1864.35 3061.89 1833.16 3050.89"/><polyline class="cls-12" points="1864.35 3061.89 1646.02 3139.02 1646.02 3179.89"/><line class="cls-12" x1="1646.02" y1="3139.02" x2="1453.96" y2="3068.22"/><polyline class="cls-12" points="1697.33 2976.57 1697.33 2941.83 1485.45 2859.72"/><polyline class="cls-12" points="1676.34 2933.7 1652.59 2938.89 1652.59 2974.39"/><polyline class="cls-12" points="1507.92 2868.35 1483.92 2872.99 1483.92 2897.41"/><polyline class="cls-12" points="1582.71 2897.41 1560.82 2903.22 1560.82 2932.41"/><polyline class="cls-12" points="1623.97 2913.4 1604.2 2920.22 1604.2 2952.15"/><polyline class="cls-12" points="1541.42 2881.41 1518.86 2886.78 1518.86 2913.32"/><line class="cls-12" x1="1676.39" y1="2956.89" x2="1792.06" y2="2927.83"/><line class="cls-12" x1="1676.39" y1="2964.89" x2="1760.93" y2="2942.89"/><line class="cls-12" x1="1676.39" y1="2973.89" x2="1842.19" y2="2925.89"/><line class="cls-12" x1="1888.15" y1="2953.89" x2="1724.03" y2="3017.43"/><line class="cls-12" x1="1888.15" y1="2947.53" x2="1773.24" y2="2989.89"/><polyline class="cls-12" points="1687.06 3045.89 1759.29 3058.22 1781.79 3033.89"/><line class="cls-12" x1="1439.18" y1="2983.39" x2="1499.72" y2="2994.8"/><line class="cls-12" x1="1439.18" y1="2994.8" x2="1541.78" y2="3012.89"/><polyline class="cls-12" points="1630.49 3068.22 1687.06 3086.17 1724 3069.89"/><line class="cls-12" x1="1687.06" y1="3096.93" x2="1744.52" y2="3070.89"/><line class="cls-12" x1="1864.35" y1="3073.92" x2="1724.03" y2="3124.47"/><line class="cls-12" x1="1864.35" y1="3083.91" x2="1766.68" y2="3120.89"/><line class="cls-12" x1="1453.97" y1="3092.77" x2="1503.21" y2="3111.89"/><line class="cls-12" x1="1453.82" y1="3079.83" x2="1530.01" y2="3109.04"/><polygon class="cls-20" points="1457.65 2640.89 1627.65 2601.89 1849.65 2678.89 1849.65 2702.89 1878.65 2713.89 1878.65 2736.89 1842.65 2750.89 1817.65 2776.89 1842.65 2783.89 1842.65 2818.89 1823.65 2827.89 1854.65 2838.89 1854.65 2873.89 1635.65 2956.89 1443.65 2881.89 1443.65 2844.89 1473.65 2830.89 1452.65 2824.89 1452.65 2789.89 1429.65 2784.89 1429.65 2749.89 1460.65 2719.89 1434.65 2709.89 1433.65 2682.89 1471.15 2673.39 1453.15 2665.39 1453.15 2642.39 1457.65 2640.89"/><polyline class="cls-12" points="1849.43 2679.34 1663.93 2724.53 1663.93 2760.39"/><line class="cls-8" x1="1663.93" y1="2724.53" x2="1452.99" y2="2641.89"/><line class="cls-12" x1="1694.3" y1="2810.89" x2="1694.3" y2="2776.55"/><polyline class="cls-18" points="1749.29 2846.89 1749.29 2807.26 1714.03 2802.94"/><line class="cls-12" x1="1749.29" y1="2807.26" x2="1784.63" y2="2774.53"/><line class="cls-12" x1="1677.06" y1="2893.89" x2="1677.06" y2="2853.98"/><polyline class="cls-12" points="1463.35 2791.65 1677.06 2853.98 1710.2 2839.33"/><line class="cls-12" x1="1842.21" y1="2783.62" x2="1789.8" y2="2805.24"/><polyline class="cls-12" points="1473.51 2830.89 1443.96 2845.22 1443.96 2881.89 1636.02 2956.89 1854.35 2873.89 1854.35 2838.89 1823.16 2827.89"/><polyline class="cls-12" points="1854.35 2838.89 1636.02 2916.02 1636.02 2956.89"/><line class="cls-12" x1="1636.02" y1="2916.02" x2="1443.96" y2="2845.22"/><polyline class="cls-12" points="1687.33 2753.57 1687.33 2718.83 1475.45 2636.72"/><polyline class="cls-12" points="1666.34 2710.7 1642.59 2715.89 1642.59 2751.39"/><polyline class="cls-12" points="1497.92 2645.35 1473.92 2649.99 1473.92 2674.41"/><polyline class="cls-12" points="1572.71 2674.41 1550.82 2680.22 1550.82 2709.41"/><polyline class="cls-12" points="1613.97 2690.4 1594.2 2697.22 1594.2 2729.15"/><polyline class="cls-12" points="1531.42 2658.41 1508.86 2663.78 1508.86 2690.32"/><line class="cls-12" x1="1666.39" y1="2733.89" x2="1782.06" y2="2704.83"/><line class="cls-12" x1="1666.39" y1="2741.89" x2="1750.93" y2="2719.89"/><line class="cls-12" x1="1666.39" y1="2750.89" x2="1832.19" y2="2702.89"/><line class="cls-12" x1="1878.15" y1="2730.89" x2="1714.03" y2="2794.43"/><line class="cls-12" x1="1878.15" y1="2724.53" x2="1763.24" y2="2766.89"/><polyline class="cls-12" points="1677.06 2822.89 1749.29 2835.22 1771.79 2810.89"/><line class="cls-12" x1="1429.18" y1="2760.39" x2="1489.72" y2="2771.8"/><line class="cls-12" x1="1429.18" y1="2771.8" x2="1531.78" y2="2789.89"/><polyline class="cls-12" points="1620.49 2845.22 1677.06 2863.17 1714 2846.89"/><line class="cls-12" x1="1677.06" y1="2873.93" x2="1734.52" y2="2847.89"/><line class="cls-12" x1="1854.35" y1="2850.92" x2="1714.03" y2="2901.47"/><line class="cls-12" x1="1854.35" y1="2860.91" x2="1756.68" y2="2897.89"/><line class="cls-12" x1="1443.97" y1="2869.77" x2="1493.21" y2="2888.89"/><line class="cls-12" x1="1443.82" y1="2856.83" x2="1520.01" y2="2886.04"/><polygon class="cls-8" points="334 2674.3 334 2641 416 2656 334 2674.3"/><polygon class="cls-8" points="224 2661 291 2648 291 2674 224 2661"/><polygon class="cls-8" points="182 3084 182 3113 257 3097 182 3084"/><polygon class="cls-8" points="357 3097 357 3104 335 3109 335 3139 462 3112 462 3075 357 3097"/><polygon class="cls-14" points="1715 2803 1749 2807 1784 2775 1715 2803"/><polygon class="cls-10" points="1726 3026 1760 3030 1795 2998 1726 3026"/><polygon class="cls-17" points="1817 2777 1839.5 2783.5 1792.5 2802.5 1817 2777"/><polygon class="cls-17" points="1827 3000 1849.5 3006.5 1802.5 3025.5 1827 3000"/><polygon class="cls-17" points="1478.5 2795.5 1676.5 2853.5 1709.5 2839.5 1478.5 2795.5"/><polygon class="cls-17" points="1488.5 3018.5 1686.5 3076.5 1719.5 3062.5 1488.5 3018.5"/><polygon class="cls-5" points="1472.56 2831.76 1445.56 2844.76 1636.5 2915.5 1853.5 2838.5 1823.5 2828.5 1676.5 2894.5 1472.56 2831.76"/><polygon class="cls-5" points="1482.56 3054.76 1455.56 3067.76 1646.5 3138.5 1863.5 3061.5 1833.5 3051.5 1686.5 3117.5 1482.56 3054.76"/><polygon class="cls-15" points="1687.56 2938.04 1817.5 2888.5 1858.5 2902.5 1695.5 2941.5 1687.56 2938.04"/><rect class="cls-9" y="715" width="60" height="39"/><rect class="cls-9" x="91" y="715" width="75" height="39"/><rect class="cls-9" x="195" y="715" width="54" height="39"/><rect class="cls-9" x="0" y="802" width="60" height="642"/><rect class="cls-9" x="91" y="802" width="73" height="642"/><rect class="cls-9" x="195" y="802" width="54" height="642"/><rect class="cls-9" x="0" y="1492" width="60" height="74"/><rect class="cls-19" x="91" y="1493" width="73" height="73"/><rect class="cls-9" x="195" y="1492" width="54" height="74"/><rect class="cls-9" x="0" y="1613" width="60" height="70"/><rect class="cls-9" x="91" y="1613" width="73" height="70"/><rect class="cls-9" x="195" y="1613" width="54" height="70"/><rect class="cls-9" y="1731" width="60" height="73"/><rect class="cls-9" x="91" y="1731" width="73" height="73"/><rect class="cls-9" x="195" y="1731" width="54" height="73"/><rect class="cls-9" y="1852" width="60" height="74"/><rect class="cls-9" x="91" y="1852" width="74" height="74"/><rect class="cls-9" x="195" y="1852" width="54" height="74"/><rect class="cls-9" x="0" y="1973" width="60" height="566"/><rect class="cls-9" x="91" y="1973" width="74" height="566"/><rect class="cls-9" x="195" y="1973" width="54" height="566"/><rect class="cls-19" x="0" y="2704" width="60" height="74"/><polygon class="cls-19" points="59.5 2881.5 .5 2881.5 .5 2825.5 60.5 2825.5 59.5 2881.5"/><rect class="cls-19" x="91" y="2825" width="46" height="56"/><rect class="cls-19" x="91" y="2705" width="46" height="73"/><rect class="cls-19" y="2587" width="60" height="70"/><polygon class="cls-19" points="91 2587 164 2587 164 2610 160 2610 137 2615 137 2657 91 2657 91 2587"/><polygon class="cls-19" points="195.5 2587.5 248.5 2587.5 248.5 2630.5 195.5 2641.5 195.5 2587.5"/><rect class="cls-19" x="1701" y="715" width="48" height="39"/><rect class="cls-19" x="1779" y="715" width="83" height="39"/><rect class="cls-19" x="1893" y="715" width="57" height="39"/><rect class="cls-9" x="1701" y="802" width="48" height="642"/><rect class="cls-9" x="1779" y="802" width="83" height="642"/><rect class="cls-9" x="1893" y="802" width="58" height="642"/><rect class="cls-19" x="1701" y="1492" width="48" height="74"/><rect class="cls-19" x="1779" y="1492" width="83" height="74"/><rect class="cls-19" x="1893" y="1492" width="58" height="74"/><rect class="cls-19" x="1701" y="1613" width="48" height="70"/><rect class="cls-19" x="1779" y="1613" width="83" height="70"/><rect class="cls-19" x="1893" y="1613" width="57" height="70"/><rect class="cls-9" x="1701" y="1731" width="48" height="73"/><rect class="cls-9" x="1779" y="1731" width="83" height="73"/><rect class="cls-9" x="1893" y="1731" width="58" height="73"/><rect class="cls-19" x="1701" y="1852" width="48" height="74"/><rect class="cls-19" x="1779" y="1852" width="83" height="74"/><rect class="cls-19" x="1893" y="1852" width="57" height="74"/><rect class="cls-9" x="1701" y="1973" width="48" height="566"/><rect class="cls-9" x="1779" y="1973" width="83" height="566"/><rect class="cls-9" x="1893" y="1973" width="57" height="566"/><rect class="cls-9" x="1893" y="2587" width="57" height="69"/><rect class="cls-9" x="1893.5" y="2825.5" width="56.5" height="55.5"/><polygon class="cls-6" points="1842.5 2751.5 1817.5 2777.5 1861.5 2777.5 1861.5 2744.5 1842.5 2751.5"/><polygon class="cls-6" points="1827.5 2826.5 1861.5 2826.5 1861.5 2880.5 1838.5 2880.5 1855.5 2874.5 1855.5 2838.5 1825.5 2827.5 1827.5 2826.5"/><polygon class="cls-9" points="1779 2587 1862 2587 1862 2656 1785 2656 1779 2654 1779 2587"/><polygon class="cls-9" points="1701 2587 1748 2587 1748 2643 1701 2627 1701 2587"/><polygon class="cls-17" points="1626.5 2601.5 1476.5 2636.5 1687.5 2718.5 1847.5 2679.5 1626.5 2601.5"/><polygon class="cls-2" points="1471 2673 1434 2683 1696.14 2776.65 1878 2714 1850 2703 1664 2760 1471 2673"/><polygon class="cls-13" points="1481.5 2897.5 1444 2906 1706.14 2999.65 1888 2937 1860.5 2926.5 1673.5 2984.5 1481.5 2897.5"/><polyline class="cls-12" points="1433.77 2683.21 1694.3 2776.89 1878.15 2713.81"/><polygon class="cls-12" points="1626.99 2601.89 1452.99 2641.89 1452.99 2664.89 1663.93 2760.89 1849.43 2702.89 1849.43 2679.34 1626.99 2601.89"/><polygon class="cls-2" points="1461 2721 1430 2750 1645 2792 1461 2721"/><polygon class="cls-11" points="1471.5 2944.5 1440 2974 1655 3016 1471.5 2944.5"/><line class="cls-12" x1="1429.18" y1="2749.89" x2="1650.07" y2="2793.72"/><polyline class="cls-12" points="1471.53 2673.33 1433.77 2683.21 1434.11 2709.89 1694.3 2810.89 1878.15 2736.89 1878.15 2720.36 1878.15 2713.81 1849.43 2702.89"/><polyline class="cls-12" points="1842.21 2751.35 1749.29 2846.89 1429.18 2785.05 1429.18 2749.89 1461.1 2720.36"/><polyline class="cls-12" points="1452.99 2789.64 1452.99 2824.91 1677.06 2893.89 1842.21 2818.75 1842.21 2783.62 1817.7 2776.55"/><polyline class="cls-12" points="1443.77 2906.21 1704.3 2999.89 1888.15 2936.81"/><polyline class="cls-12" points="1481.53 2896.33 1443.77 2906.21 1444.11 2932.89 1704.3 3033.89 1888.15 2959.89 1888.15 2943.36 1888.15 2936.81 1859.43 2925.89"/><polyline class="cls-12" points="1852.21 2974.35 1759.29 3069.89 1439.18 3008.05 1439.18 2972.89 1471.1 2943.36"/><line class="cls-12" x1="1660.07" y1="3016.72" x2="1439.18" y2="2972.89"/><line class="cls-12" x1="1823" y1="2778" x2="1951" y2="2778"/><line class="cls-1" x1="1894" y1="2704" x2="1894" y2="2778"/><line class="cls-12" x1="1701" y1="1926" x2="1950" y2="1926"/><line class="cls-12" x1="1701" y1="1852" x2="1950" y2="1852"/><line class="cls-12" x1="1749" y1="1852" x2="1749" y2="1926"/><line class="cls-12" x1="1779" y1="1852" x2="1779" y2="1926"/><line class="cls-12" x1="1862" y1="1852" x2="1862" y2="1926"/><line class="cls-12" x1="1893" y1="1852" x2="1893" y2="1926"/><line class="cls-12" x1="1749" y1="1613" x2="1749" y2="1683"/><line class="cls-12" x1="1779" y1="1613" x2="1779" y2="1683"/><line class="cls-12" x1="1862" y1="1613" x2="1862" y2="1683"/><line class="cls-12" x1="1893" y1="1613" x2="1893" y2="1683"/><line class="cls-12" x1="1701" y1="1613" x2="1950" y2="1613"/><line class="cls-12" x1="1701" y1="1683" x2="1950" y2="1683"/><line class="cls-12" x1="1950" y1="1613" x2="1950" y2="1683"/><line class="cls-12" x1="1701" y1="1492" x2="1951" y2="1492"/><line class="cls-12" x1="1701" y1="1566" x2="1950" y2="1566"/><line class="cls-12" x1="1749" y1="1492" x2="1749" y2="1566"/><line class="cls-12" x1="1779" y1="1492" x2="1779" y2="1566"/><line class="cls-12" x1="1862" y1="1492" x2="1862" y2="1566"/><line class="cls-12" x1="1893" y1="1492" x2="1893" y2="1566"/><line class="cls-12" x1="1701" y1="754" x2="1950" y2="754"/><line class="cls-12" x1="1749" y1="715" x2="1749" y2="754"/><line class="cls-12" x1="1779" y1="715" x2="1779" y2="754"/><line class="cls-12" x1="1862" y1="715" x2="1862" y2="754"/><line class="cls-12" x1="1893" y1="715" x2="1893" y2="754"/><line class="cls-12" x1="1701" y1="715" x2="1950" y2="715"/><line class="cls-12" x1="1701" y1="715" x2="1701" y2="2627"/><line class="cls-12" x1="1701" y1="802" x2="1951" y2="802"/><line class="cls-12" x1="1701" y1="1444" x2="1951" y2="1444"/><line class="cls-12" x1="1701" y1="1731" x2="1951" y2="1731"/><line class="cls-12" x1="1701" y1="1804" x2="1951" y2="1804"/><line class="cls-12" x1="1701" y1="2539" x2="1951" y2="2539"/><line class="cls-12" x1="1701" y1="2587" x2="1950" y2="2587"/><line class="cls-12" x1="1823" y1="2778" x2="1951" y2="2778"/><line class="cls-12" x1="1894" y1="2704" x2="1894" y2="2778"/><rect class="cls-21" x="1894" y="2704" width="57" height="74"/><line class="cls-12" x1="1854" y1="2704" x2="1950" y2="2704"/><line class="cls-12" x1="1823" y1="2778" x2="1951" y2="2778"/><line class="cls-12" x1="1894" y1="2704" x2="1894" y2="2778"/><line class="cls-12" x1="1950" y1="2704" x2="1950" y2="2778"/><line class="cls-12" x1="0" y1="2825" x2="137" y2="2825"/><line class="cls-12" y1="2881" x2="137" y2="2881"/><line class="cls-12" y1="2826" x2="137" y2="2826"/><line class="cls-12" x1="91" y1="2825" x2="91" y2="2881"/><line class="cls-12" x1="60" y1="2826" x2="60" y2="2881"/><line class="cls-12" y1="2704" x2="137" y2="2704"/><line class="cls-12" y1="2778" x2="137" y2="2778"/><line class="cls-12" x1="91" y1="2705" x2="91" y2="2778"/><line class="cls-12" y1="2703" y2="2779"/><line class="cls-12" x1="137" y1="2656" y2="2656"/><line class="cls-12" y1="2587" x2="249" y2="2587"/><line class="cls-12" x1="0" y1="1973" x2="249" y2="1973"/><line class="cls-12" y1="1926" x2="249" y2="1926"/><line class="cls-12" y1="1852" x2="249" y2="1852"/><line class="cls-12" x1="0" y1="1613" x2="249" y2="1613"/><line class="cls-12" x1="0" y1="1566" x2="249" y2="1566"/><line class="cls-12" x1="0" y1="1492" x2="249" y2="1492"/><line class="cls-12" x1="91" y1="1493" x2="91" y2="1566"/><line class="cls-12" y1="754" x2="249" y2="754"/></svg>