<?xml version="1.0" encoding="UTF-8"?><svg id="_레이어_1" xmlns="http://www.w3.org/2000/svg" viewBox="0 0 851.05 411.05"><defs><style>.cls-1{fill:none;stroke:#f2e68e;stroke-miterlimit:10;}</style></defs><path class="cls-1" d="M-22.6,403.67s-3.87-1.19-3.95-3.87,3.47-3.63,3.47-5.21-3.32-1.03-3.47-3.63,3.71-9.42,7.42-9.29,4.74,.92,6.63,2.89,7.97,1.74,8.13,5.37-.32,4.18,1.5,5.68,2.61,3.64,2.45,5.37,1.89,4.74,1.74,7.7-4.11,5.97-7.26,5.97-4.26-2.54-4.26-5.38,2.68-3.71,2.68-6.08-3-5.03-4.74-5.03-4.66,1.49-5.61,2.83-4.74,2.68-4.74,2.68Z"/><path class="cls-1" d="M24.85,414.65s-2.37-3.49-5.84-3.33,4.66-1.03,4.74-6.95-2.61-7.58-5.61-8.13-5.76,2.37-3.71,4.34,.87,8.13-3.79,8.1-3.32-10.7-4.26-14.73-4.82-5.37-6.24-6.63-.08-6.95-2.68-9.39c-2.61-2.45-5.84,1.11-8.13,0s.39-4.03-1.93-6-3.75,1.42-5.57,.32-.08-3.16-1.18-4.89-3.87-2.61-6.24-2.61-1.74,2.61-3.95,2.61-1.74-3.24-3.95-3.24-1.89,2.92-4.11,1.66-.79-7.82-2.84-9.16-4.34-2.13-8.05-1.97-9.08,4.89-8.92,7.97,4.11,4.74,4.11,4.74c0,0,2.13-2.53,4.97-2.61s6.71,3.24,6.63,6.63-3.12,4.82-2.92,9.55c.03,.65-.32,3.71,1.82,3.71,4.03,0,6.16-8.36,11.13-8.29s8.88,7.15,8.88,7.15"/><path class="cls-1" d="M-90.78,372.36s16.87-26.4,49.55-26.41c46.42,0,42.55,42.2,42.55,42.2"/><path class="cls-1" d="M7.17,403.24s2.2,.8,3.05,1.37c2.72,1.82,3.72,3.71,3.01,3.29"/><path class="cls-1" d="M6.8,398.69s2.93,.46,4.63,1.17c2.65,1.1,3.77,3.64,3.77,3.64"/><path class="cls-1" d="M6.8,395.69s1.72-.28,3.68,.32c2.75,.83,3.45,2.15,3.45,2.15"/><path class="cls-1" d="M5.93,392.64s12.53,.38,19.95,8.19c7.42,7.81,7.58,14.28,7.58,14.28"/><path class="cls-1" d="M23.61,406.74s1.16,2.02,2,3.6,1.84,4.3,1.84,4.3"/><line class="cls-1" x1="21.07" y1="409.4" x2="22.05" y2="412.1"/><path class="cls-1" d="M1.15,381.07s15.73-.85,29.54,13.67,12.63,20.37,12.63,20.37"/><path class="cls-1" d="M63.09,414.65s6.74-7.12,20.53-7.12,20.42,7.12,20.42,7.12"/><path class="cls-1" d="M50.35,414.65s14.84-14.38,34.84-14.06,29.68,14.06,29.68,14.06"/><path class="cls-1" d="M43.35,411.43s22.16-16.84,41.16-16.84c22.17,0,38.26,20.06,38.26,20.06"/><path class="cls-1" d="M40.78,407.61s22.3-19.04,43.72-19.03c26.48,.01,45.42,26.06,45.42,26.06"/><path class="cls-1" d="M38.1,403.5s23.51-21.02,45.46-21.02c29.53,0,52.58,32.17,52.58,32.17"/><path class="cls-1" d="M31.51,395.62s15.88-23.55,52.04-23.56c43,0,43.84,36.62,65.42,36.63,11.89,0,23.37-18.32,23.37-18.32"/><path class="cls-1" d="M160.56,395.3s-3.71,0-3.71-5.29c0-4.26,8.36-7.75,10.42-7.53,3.95,.42,1.89,2.08,4.03,2.47s2.92-3.42,5.84-3.29,4.58,.84,5.84,2.11,2.37,2.71,2.53,4.71-4.18,4.05-1.89,5.24,5.76,.32,5.84,3.55-2.29,3.55-1.97,5.84,2.21,4.34,4.03,4.34,3.71-2.21,3.71-6.39,2.84-4.97,4.18-4.97,5.29,0,5.21,6.39-3.55,12.17-10.18,12.17-11.68-2.93-13.7-4.99-.99-5.61-2.41-7.26-3.32,0-4.82,0-3.08-1.18-3.32-2.37,.55-3.47,1.74-4.34,2.45-1.89,2.37-3.24-1.5-3.24-4.5-3.39-3.49,2.13-4.42,3.39c-2.61,3.55-4.82,2.84-4.82,2.84Z"/><path class="cls-1" d="M181.11,382.48s8.7-4.86,14.97-7c0,0,10.74-3.42,21.47-2.69,38.76,2.65,50.53,41.86,50.53,41.86"/><path class="cls-1" d="M161.98,414.65s6.25-3.74,8.84-5.96c3.92-3.37,6.54-6.94,6.54-6.94"/><path class="cls-1" d="M169.67,414.65s3.77-2.96,4.99-4.06c2.47-2.24,4.6-5.05,4.6-5.05"/><path class="cls-1" d="M176.66,414.65s1.47-.86,2.6-2.12c.88-.97,1.47-2.44,1.47-2.44"/><path class="cls-1" d="M141.87,407.17s3.36-2.13,6.5-2.13c5.26,0,5.8,2.57,5.8,2.57"/><path class="cls-1" d="M138.25,405.04s3.28-5.17,12.28-5.17c6.63,0,7.82,5.17,7.82,5.17"/><path class="cls-1" d="M134.06,401.39s6.53-6.37,17.1-6.37,12.93,5.56,12.93,5.56"/><path class="cls-1" d="M131.06,398.15s9.28-8.11,20.5-8.15c3.79-.01,5.34,.97,5.34,.97"/><path class="cls-1" d="M127.88,394.46s9.31-9.41,25.66-9.19c3.36,.04,5.54,.87,5.54,.87"/><path class="cls-1" d="M124.55,390.65s9.5-11.37,32.61-10.67c6.16,.19,9.16,2.6,9.04,2.59"/><path class="cls-1" d="M121.06,386.95s8.96-10.28,32.08-11.08c18.16-.63,22.54,6.09,22.54,6.09"/><path class="cls-1" d="M115.49,382.05s14.28-15.49,37.81-14.93c23.53,.55,30.2,13.91,30.2,13.91"/><path class="cls-1" d="M112.11,379.67s10.63-16.34,41.5-16.34c25.65,0,32.91,16,32.91,16"/><path class="cls-1" d="M115.49,375.83s-8.93-3.67-8.85-9.59,4.11-4.89,4.74-5.76c1.08-1.49-.22-6.16,4.11-6.16s4.97,2.99,4.97,4.58c0,5.45-4.8,3.79-4.97,7.34s5.22,5.63,5.22,5.63"/><path class="cls-1" d="M129.93,367.26s-5.37-5.51-5.37-9.78c0-8.05,7.27-12.87,11.14-12.87,4.74,0,5.29,4.5,5.29,5.76s-1.52,2.84-2.73,3-6.21,.24-6.11,4.89c.08,3.55,4.5,6.81,4.5,6.81"/><path class="cls-1" d="M143.98,363.89c-.39,.08-2.5-1.76-2.37-3.97,.26-4.34,3.47-3.39,3.32-6.87s1.03-6.08,1.97-7.11,2.72-2.31,4.34-2.37c2.33-.08,2.05,1.89,3.08,2.05s1.28-4.26,4.75-4.18,6.38,3.08,6.46,5.45-2.05,3.32-3.16,3.47-5.61,.57-6.79,1.03c-1.09,.42-2.48,1.82-3,2.45-1.36,1.66-2.76,9.47-2.76,9.47"/><path class="cls-1" d="M160.32,363.72s1.18-3.39,2.6-5.68,6.08-5.6,8.05-5.64,2.53,1.93,4.18,1.93,.95-2.45,2.68-2.45,4.97,1.5,4.89,4.74-1.01,4.86-2.01,4.89c-2.39,.08-3.43-2.09-5.05-2.45-1.97-.43-4.07,1.58-4.78,2.53s-1.03,4.34-1.03,4.34"/><path class="cls-1" d="M178.34,370.31s2.98-6.99,6.69-6.99c2.07,0,1.53,1.85,2.9,1.76s.81-1.91,2.95-1.76,5,1.66,4.99,4.66-.33,4.05-2.07,4.08-1.82-2.34-4.34-2.26-6.3,4.78-6.3,4.78"/><path class="cls-1" d="M291.08,403.81s-3.87-1.19-3.95-3.87,3.47-3.63,3.47-5.21-3.32-1.03-3.47-3.63,3.71-9.42,7.42-9.29,4.74,.92,6.63,2.89,7.97,1.74,8.13,5.37-.32,4.18,1.5,5.68,2.61,3.64,2.45,5.37,1.89,4.74,1.74,7.7c-.16,2.95-4.11,5.97-7.26,5.97s-4.26-2.54-4.26-5.38,2.68-3.71,2.68-6.08-3-5.03-4.74-5.03-4.66,1.49-5.61,2.83-4.74,2.68-4.74,2.68Z"/><path class="cls-1" d="M338.52,414.79s-2.37-3.49-5.84-3.33,4.66-1.03,4.74-6.95c.08-5.92-2.61-7.58-5.61-8.13s-5.76,2.37-3.71,4.34c2.05,1.97,.87,8.13-3.79,8.1s-3.32-10.7-4.26-14.73-4.82-5.37-6.24-6.63-.08-6.95-2.68-9.39-5.84,1.11-8.13,0,.39-4.03-1.93-6-3.75,1.42-5.57,.32-.08-3.16-1.18-4.89-3.87-2.61-6.24-2.61-1.74,2.61-3.95,2.61-1.74-3.24-3.95-3.24-1.89,2.92-4.11,1.66-.79-7.82-2.84-9.16-4.34-2.13-8.05-1.97-9.08,4.89-8.92,7.97c.16,3.08,4.11,4.74,4.11,4.74,0,0,2.13-2.53,4.97-2.61s6.71,3.24,6.63,6.63-3.12,4.82-2.92,9.55c.03,.65-.32,3.71,1.82,3.71,4.03,0,6.16-8.36,11.13-8.29s8.88,7.15,8.88,7.15"/><path class="cls-1" d="M257.94,395.49s9.06-7.87,13.25-9.53,11.14-4.07,18.44-4.25"/><path class="cls-1" d="M262.62,402.64s8.06-9.68,25.76-9.62"/><path class="cls-1" d="M265.02,407.17s5.45-5.5,11.93-7.63,11.43-2.2,11.43-2.2"/><path class="cls-1" d="M267.25,412.29s3.19-3.83,7.9-6.44,12.99-3.77,12.99-3.77"/><path class="cls-1" d="M271.26,414.79s2.44-1.5,9.79-5.22c11.37-5.76,23.09-2.42,23.09-2.42"/><path class="cls-1" d="M283.89,414.79s6.24-5.3,12.39-5.38,7.85,3.28,7.85,3.28"/><path class="cls-1" d="M295.28,401.67s8.44-.17,9.98,3.94"/><path class="cls-1" d="M299.84,398.58s4.15-.03,5.74,2.83"/><path class="cls-1" d="M255.69,392.64s8.94-7.34,13.6-9.06"/><path class="cls-1" d="M252.36,388.95s7.38-6.36,16.77-9.61"/><path class="cls-1" d="M248.45,385.3s3.86-3.61,9.78-6.84c5.92-3.24,12.88-3.98,12.88-3.98"/><path class="cls-1" d="M243.75,381.71s6.41-4.88,11.01-7.24c5.8-2.97,17.18-3.61,17.18-3.61"/><path class="cls-1" d="M239.45,379.08s4.34-4.61,11.91-8.22c7.58-3.61,17.61-4.62,17.61-4.62"/><path class="cls-1" d="M236.39,377.54s6.6-6.47,10-8.87c4.03-2.84,9.86-4.26,9.86-4.26"/><path class="cls-1" d="M232.95,376.09s6.93-8.37,10.91-10.74c7.18-4.26,13.16-5.05,13.16-5.05"/><path class="cls-1" d="M274.26,358.68s14.06,.6,20.29,5.02,7.38,9.64,7.38,9.64"/><path class="cls-1" d="M275.15,362.36s3.37-.18,5.67,.3c3.94,.81,5.67,2.92,5.67,2.92"/><line class="cls-1" x1="275.35" y1="365.11" x2="278.12" y2="365.57"/><path class="cls-1" d="M222.26,373.31s17.5-27.22,50.18-27.22c46.42,0,42.55,42.2,42.55,42.2"/><path class="cls-1" d="M320.84,403.38s2.2,.8,3.05,1.37c2.72,1.82,3.72,3.71,3.01,3.29"/><path class="cls-1" d="M320.47,398.83s2.93,.46,4.63,1.17c2.65,1.1,3.77,3.64,3.77,3.64"/><path class="cls-1" d="M320.47,395.83s1.72-.28,3.68,.32c2.75,.83,3.45,2.15,3.45,2.15"/><path class="cls-1" d="M319.6,392.78s12.53,.38,19.95,8.19c7.42,7.81,7.58,14.28,7.58,14.28"/><path class="cls-1" d="M337.29,406.88s1.16,2.02,2,3.6,1.84,4.3,1.84,4.3"/><line class="cls-1" x1="334.74" y1="409.54" x2="335.72" y2="412.24"/><path class="cls-1" d="M314.83,381.21s15.73-.85,29.54,13.67c13.82,14.53,12.63,20.37,12.63,20.37"/><path class="cls-1" d="M376.76,414.79s6.74-7.23,20.53-7.12c10.16,.08,15.5,3.05,15.5,3.05"/><path class="cls-1" d="M364.02,414.79s14.89-15.54,34.84-14.06c13.92,1.03,20.95,6.64,20.95,6.64"/><path class="cls-1" d="M357.02,411.56s22.16-16.84,41.16-16.84c15.11,0,27.44,10.03,27.44,10.03"/><path class="cls-1" d="M354.46,407.75s22.3-19.03,43.72-19.03c18.16,0,32.88,13.24,32.88,13.24"/><path class="cls-1" d="M351.77,403.64s23.51-21.02,45.46-21.02c29.53,0,39.65,16.53,39.65,16.53"/><path class="cls-1" d="M345.19,395.76s15.88-23.51,52.04-23.56c28.39-.03,45.1,22.66,45.63,24.05"/><path class="cls-1" d="M438.23,390.52s9.5-11.11,32.61-10.41c6.16,.19,4.55,.18,4.44,.16"/><path class="cls-1" d="M434.73,387.09s8.95-11.08,32.08-11.08c9.16,0,14.22,1.38,14.22,1.38"/><path class="cls-1" d="M429.03,382.62s14.41-15.37,37.94-15.37c15.63,0,22.24,6.01,22.24,6.01"/><path class="cls-1" d="M425.47,380.28s10.95-16.81,41.82-16.82c20.42-.01,25.82,7.81,25.82,7.81"/><path class="cls-1" d="M429.35,376.01s-9.12-3.71-9.04-9.63c.08-5.92,4.11-4.89,4.74-5.76,1.08-1.49-.22-6.16,4.11-6.16s4.97,2.99,4.97,4.58c0,5.45-4.8,3.79-4.97,7.34s5.4,5.65,5.4,5.65"/><path class="cls-1" d="M443.84,367.39s-5.61-5.51-5.61-9.78c0-8.05,7.27-12.87,11.14-12.87,4.74,0,5.29,4.5,5.29,5.76s-1.52,2.84-2.73,3-6.21,.24-6.11,4.89c.08,3.55,4.46,7,4.46,7"/><path class="cls-1" d="M457.88,364.02c-.39,.08-2.73-1.75-2.6-3.96,.26-4.34,3.47-3.39,3.32-6.87s1.03-6.08,1.97-7.11,2.72-2.31,4.34-2.37c2.33-.08,2.05,1.89,3.08,2.05s1.28-4.26,4.75-4.18,6.38,3.08,6.46,5.45-2.05,3.32-3.16,3.47-5.61,.57-6.79,1.03c-1.09,.42-2.48,1.82-3,2.45-1.36,1.66-2.76,9.47-2.76,9.47"/><path class="cls-1" d="M474.21,363.79s.97-3.33,2.39-5.62,6.08-5.6,8.05-5.64,2.53,1.93,4.18,1.93,.95-2.45,2.68-2.45,4.97,1.5,4.89,4.74c-.08,3.24-1.01,4.86-2.01,4.89-2.39,.08-3.43-2.09-5.05-2.45-1.97-.43-4.07,1.58-4.78,2.53s-.78,3.99-.78,3.99"/><path class="cls-1" d="M491.82,369.94s3.17-6.48,6.88-6.48c2.07,0,1.53,1.85,2.9,1.76s.81-1.91,2.95-1.76,2.16,.57,2.16,.57"/><path class="cls-1" d="M184.67,394.12s8.94-13.83,29.17-13.83c32.48,0,48.65,34.35,48.65,34.35"/><path class="cls-1" d="M188.8,395.49s5.81-7.78,23.97-8.01c29.58-.37,41.45,27.77,41.45,27.77"/><path class="cls-1" d="M189.72,406.82s.76-1.65,2.65-3.47,2.84-2.29,2.84-2.29"/><path class="cls-1" d="M187.56,403.51s1.66-4.42,6.16-6.87,16.4-6.26,27.79-2.18c21.29,7.64,23.48,20.19,23.48,20.19"/><path class="cls-1" d="M203.73,398.2s5.93-1.9,12.55,0c19.02,5.45,21.28,17.05,21.28,17.05"/><path class="cls-1" d="M204.3,405.53s4.85-3.45,9.63-2.95c13.58,1.44,16.79,12.06,16.79,12.06"/><path class="cls-1" d="M200.97,412.09s3.33-3.35,9.27-3.35c9.32,0,12.95,6.05,12.95,6.05"/><path class="cls-1" d="M441.22,393.91s6.44-4.45,10.81-5.64c8.37-2.29,9.53-1.18,9.53-1.18"/><path class="cls-1" d="M403.24,415.25s116.7-54.99,137.09-70.5c35.37-26.9,40.42-78.06,72.84-77.64,32.42,.42,37.2,41.4,131.79,55.16,40.96,5.96,108.47,71.16,108.47,71.16"/><path class="cls-1" d="M677.1,302.53s11.13-45.62,27.86-45.94,31.54,64.34,31.54,64.34"/><path class="cls-1" d="M742.5,321.9s5.99,.73,8.88-5.44c15.79-33.66,15.47-116.62,44.53-109.13,22.74,5.86,35.97,166.82,35.97,166.82"/><path class="cls-1" d="M714.69,263.19s7.32-92.81,27.81-92.81c15.83,0,24.34,83.86,24.34,83.86"/><path class="cls-1" d="M821.92,289.63c-.16,.6,7.22-150.41,23.88-158.09,4.91-2.27,7.64,5.26,7.64,5.26"/><path class="cls-1" d="M416.34,415.25s116.21-47.54,132.31-63.24c16.1-15.7,40.74-66.06,58.74-68.9,18-2.84,39.95,23.3,62.68,31.51s60.16,11.75,82.58,22.17c22.42,10.42,100.79,71.05,100.79,71.05"/><path class="cls-1" d="M441.22,415.25s89.65-37.51,109.22-49.54c19.58-12.03,42.74-61.83,61.68-63.41s42.5,16.16,64.98,26.81c22.25,10.54,57.41,12.38,70.81,18.42,18.93,8.54,94.42,67.12,94.42,67.12"/><path class="cls-1" d="M481.03,414.65s39.2-16.28,67.62-34.37c28.42-18.09,44.54-62.91,67.26-63.83,20.29-.82,23.71,24.82,81.79,34.23,33.64,5.45,45.16,7.89,56.84,14.21,11.68,6.32,64.1,49.75,64.1,49.75"/><path class="cls-1" d="M514.23,415.25s30.46-12.7,55.58-31.23c20.65-15.23,29.68-49.19,50.21-50.77s32.53,22.81,61.26,28.49c28.74,5.68,46.74,1.58,68.84,13.89,22.1,12.32,47.37,39.01,47.37,39.01"/><path class="cls-1" d="M548.65,415.25s26.63-4.98,46-24.74c8.53-8.71,7.99-33.25,25.37-41.44,16.74-7.89,27.47,21.58,50.53,25.18,23.05,3.6,32.31-2.38,60.63,6.03,16.9,5.02,51.16,34.97,51.16,34.97"/><path class="cls-1" d="M580.86,415.25s14.77-7.73,20.95-13.88c13.47-13.42,15.54-31.6,24.1-34.68,15.86-5.69,21.58,18.41,45.58,21.57,24,3.16,33.47-1.45,51.16,2.48,10.35,2.3,38.21,24.5,38.21,24.5"/><path class="cls-1" d="M606.12,414.65l6.95-8.38c3.15-3.81,9.39-19.79,17.37-22.05,13.89-3.94,19.4,19.42,37.58,19.21,13.91-.16,31.47-10.3,57.16,1.89,15.19,7.21,17.33,9.93,17.33,9.93"/><path class="cls-1" d="M620.02,414.65s3.75-13.07,14.87-13.2c6.88-.08,18.08,12.39,28.81,13.2,10.74,.81,25.16-7.43,37.47-4.59s18.95,5.24,18.95,5.24"/><path class="cls-1" d="M685.77,306.55s5.5-39.44,17.55-39.24c15.62,.25,23.18,51.72,23.18,51.72"/><path class="cls-1" d="M694.96,310.19s1.79-24.13,8.35-24.13c8.21,0,8.35,29.43,8.35,29.43"/><line class="cls-1" x1="703.32" y1="313.03" x2="703.32" y2="300.77"/><path class="cls-1" d="M720.12,272.21s6.31-84.27,20.65-83.41,20.79,92.07,20.79,92.07"/><path class="cls-1" d="M726.5,287.25s.78-76.78,11.73-76.66,18.7,90.19,18.7,90.19"/><path class="cls-1" d="M731.46,302.2s-1.76-67.37,6.77-67.37,11.47,84.19,11.47,84.19"/><line class="cls-1" x1="740.77" y1="320.93" x2="738.12" y2="256.59"/><path class="cls-1" d="M758.65,325.97s16.92-102.65,32.21-102.65c20.25,0,31.64,143.05,31.64,143.05"/><path class="cls-1" d="M769.06,330.5s9.5-89.07,21.17-89.07c12.8,0,20.88,116,20.88,116"/><path class="cls-1" d="M777.94,335.19s3.01-74.81,12.43-74.39,11.94,90.15,11.94,90.15"/><path class="cls-1" d="M784.55,339.09s2.59-55.41,5.53-58.22,7.41,66.86,7.41,66.86"/><line class="cls-1" x1="790.37" y1="341.18" x2="790.08" y2="310.06"/><path class="cls-1" d="M824.85,310.06s8.96-151.05,21.55-163.84c2.79-2.83,7.04,2.43,7.04,3.63"/><path class="cls-1" d="M829.1,345.54s6.44-174.53,20.7-190.43c1.58-1.76,3.64-.43,3.64-.43"/><path class="cls-1" d="M831.14,365.83s14.5-194.19,22.3-195.45"/><path class="cls-1" d="M839.35,380.59s5.03-144.68,14.08-157.26"/><path class="cls-1" d="M848.52,388.82s-1.14-89.39,4.92-105.92"/></svg>