<?xml version="1.0" encoding="UTF-8"?><svg id="_레이어_2" xmlns="http://www.w3.org/2000/svg" viewBox="0 0 326.98 352.08"><defs><style>.cls-1{fill:#231815;}.cls-1,.cls-2{stroke:#231815;stroke-miterlimit:10;stroke-width:3px;}.cls-2{fill:none;}</style></defs><g id="_레이어_1-2"><path class="cls-1" d="m30.06,47.77C19.47,43.78-.16,25.25,1.61,15.77S86.35,2.14,109.46,1.55s90.67,4.74,95.41,9.48-18.96,37.26-25.48,38.45-140.94,1.45-149.33-1.71Z"/><polyline class="cls-2" points="30.06 47.77 33.61 83.92 177.61 83.92 179.39 49.47"/><line class="cls-2" x1="43.12" y1="49.05" x2="159.24" y2="73.84"/><path class="cls-2" d="m101.18,50.23l74.65,18.28c-.95-.44,13.48-6.74,25.33-8,9.96-1.06,31.7-1.14,42.07,7.41s21.48,19.56,21.48,19.56"/><line class="cls-2" x1="131.39" y1="50.3" x2="123.18" y2="55.61"/><line class="cls-2" x1="175.84" y1="52.95" x2="135.54" y2="59.37"/><line class="cls-2" x1="175.84" y1="61.45" x2="164.95" y2="65.84"/><line class="cls-2" x1="30.88" y1="56.16" x2="58.5" y2="52.95"/><line class="cls-2" x1="31.84" y1="65.84" x2="91.44" y2="59.37"/><line class="cls-2" x1="32.1" y1="68.51" x2="155.69" y2="83.92"/><path class="cls-2" d="m61.64,63.64l114.2,12.57s17.97-11.11,38.81-9.33,23.11,4.89,28.59,9.33c6,4.87,19.41,18.1,19.41,18.1"/><path class="cls-2" d="m33.61,83.92s-13.19,11.61-14.11,31.77c-.78,16.93,1.78,28.27,10.56,30.45,10.19,2.54,140.33,0,140.33,0,0,0,11.96.15,11.96-2.37,0-4-11.96-3.56-11.96-3.56,0,0-127.3,6.52-135.59,1.19s-10-14.3-9.41-25.33,8.78-23,8.78-23"/><line class="cls-2" x1="47.24" y1="103.47" x2="155.69" y2="101.1"/><line class="cls-2" x1="80.43" y1="112.36" x2="155.69" y2="112.36"/><line class="cls-2" x1="58.5" y1="125.99" x2="150.95" y2="125.99"/><path class="cls-2" d="m47.24,147.45s-4.1,12.91-4.12,21.79,3.53,20.15,8.27,21.93,113.56,2.37,113.56,2.37c0,0,8.3.59,5.44-4.15-1.52-2.52-109.35,2.4-114.85-1.78-4.3-3.26-5.93-8.14-5.93-17.11s2.07-15.49,2.07-15.49"/><line class="cls-2" x1="80.43" y1="160.95" x2="127.28" y2="160.95"/><line class="cls-2" x1="66.8" y1="170.51" x2="146.8" y2="170.51"/><path class="cls-2" d="m51.39,191.17s-10.67-3.56-16,7.7-10.73,63.41-3.29,66.37,143.74,2.37,143.74,2.37c0,0,11.7.59,11.7-1.86,0-4.51-14.07-4.07-14.07-4.07,0,0-126.81,1.78-132.74-1.78s-5.48-21.67-4.3-30.81c1.09-8.44,5.48-25.78,5.48-25.78"/><line class="cls-2" x1="66.8" y1="209.68" x2="164.95" y2="209.68"/><line class="cls-2" x1="56.72" y1="230.48" x2="110.65" y2="230.48"/><line class="cls-2" x1="98.8" y1="249.25" x2="164.95" y2="249.25"/><polyline class="cls-2" points="34.94 265.76 34.94 300.8 182.37 300.8 182.37 270.12"/><path class="cls-1" d="m34.94,300.8c-6.75,1.78-31.35,32.3-30.07,37.63s76.15,12.15,105.78,12.15,94.6-5.33,102.41-10.67-22.96-36.74-30.69-39.11-147.44,0-147.44,0Z"/><line class="cls-2" x1="44.69" y1="266.42" x2="182.37" y2="300.8"/><line class="cls-2" x1="75.69" y1="267.23" x2="179.39" y2="288.95"/><line class="cls-2" x1="34.94" y1="288.95" x2="83.69" y2="278.09"/><line class="cls-2" x1="43.12" y1="300.2" x2="108.66" y2="283.61"/><line class="cls-2" x1="131.87" y1="279" x2="175.84" y2="270.31"/><line class="cls-2" x1="101.18" y1="300.2" x2="138.51" y2="291.91"/><line class="cls-2" x1="161.53" y1="285.21" x2="182.37" y2="279"/><line class="cls-2" x1="119.84" y1="296.05" x2="131.39" y2="300.8"/><line class="cls-2" x1="61.64" y1="282.1" x2="34.94" y2="278.09"/><path class="cls-2" d="m255.17,78.39s7.77-20.46,13.7-19.02,4.15,17.44,2.37,24.55-39.7,162.22-39.7,162.22l-4.27,8.28-5.9-.48-1.09-10.02,32.74-158.53"/><polygon class="cls-1" points="222.72 263.62 221.37 253.94 227.26 254.42 222.72 263.62"/><path class="cls-2" d="m266.97,101.1s10.71,12.59,22.2,16.3c14.96,4.82,37.78,4.44,37.78,4.44"/><path class="cls-2" d="m268.66,94.31s12.81,12.43,25.25,17.17,33.04,4.21,33.04,4.21"/><path class="cls-2" d="m259.53,82.73s2.08-9.7,5.78-8.84-2.73,22.26-3.91,23.25-2.75.12-3.93-.37.83-6.57.83-6.57"/></g></svg>