<?xml version="1.0" encoding="UTF-8"?><svg id="_레이어_2" xmlns="http://www.w3.org/2000/svg" xmlns:xlink="http://www.w3.org/1999/xlink" viewBox="0 0 1920.5 419"><defs><style>.cls-1{fill:#86a945;}.cls-1,.cls-2,.cls-3,.cls-4{stroke:#000;stroke-miterlimit:10;stroke-width:2px;}.cls-5{clip-path:url(#clippath-1);}.cls-2,.cls-6{fill:none;}.cls-7{clip-path:url(#clippath);}.cls-3{fill:#b3c648;}.cls-4{fill:#fff;}.cls-8{fill:#597d8b;}</style><clipPath id="clippath"><rect class="cls-6" y="17.5" width="613" height="292"/></clipPath><clipPath id="clippath-1"><rect class="cls-6" x="1253.5" width="667" height="419"/></clipPath></defs><g id="_레이어_1-2"><g class="cls-7"><path class="cls-8" d="m-2,101.5h50.051l-2.241,53.501s-3.735.733-11.952-2.199c-6.478-2.311-7.47-4.397-7.47-4.397,0,0,5.229-16.857-9.711-24.185-9.088-4.458-18.676-2.199-18.676-2.199v-20.521Z"/><path class="cls-8" d="m119.24,102.151l-7.47,50.57s12.699,3.664,20.17,2.199c13.145-2.579,14.941-5.13,14.941-5.13,0,0-5.044-5.438,2.241-17.589,7.47-12.459,20.17-10.26,20.17-10.26l9.711-19.788h-59.762Z"/><path class="cls-8" d="m160.543,102.151h50.051l-2.241,53.501s-3.735.733-11.952-2.199c-6.478-2.311-7.47-4.397-7.47-4.397,0,0,5.229-16.857-9.711-24.185-9.088-4.458-18.676-2.199-18.676-2.199v-20.521Z"/><path class="cls-8" d="m150.32,102.239l.39,53.813s5.639,3.541,8.909,1.772c5.754-3.113,6.392-5.87,6.392-5.87,0,0-2.643-5.621-.18-18.715,2.526-13.426,8.403-11.46,8.403-11.46l3.041-21.261-26.955,1.721Z"/><path class="cls-8" d="m78.901,102.151h50.051l-2.241,53.501s-3.735.733-11.952-2.199c-6.478-2.311-7.47-4.397-7.47-4.397,0,0,5.229-16.857-9.711-24.185-9.088-4.458-18.676-2.199-18.676-2.199v-20.521Z"/><path class="cls-8" d="m39.308,102.884l-6.723,49.837s11.952,4.397,19.423,2.932c13.145-2.579,13.446-5.863,13.446-5.863,0,0-5.044-4.705,2.241-16.857,7.47-12.459,21.664-10.26,21.664-10.26l9.711-19.788h-59.762Z"/><path class="cls-8" d="m402.58,102.151h50.051l-2.241,53.501s-3.735.733-11.952-2.199c-6.478-2.311-7.47-4.397-7.47-4.397,0,0,5.229-16.857-9.711-24.185-9.088-4.458-18.676-2.199-18.676-2.199v-20.521Z"/><path class="cls-8" d="m321.901,102.151h50.051l-2.241,53.501s-3.735.733-11.952-2.199c-6.478-2.311-7.47-4.397-7.47-4.397,0,0,5.229-16.857-9.711-24.185-9.088-4.458-18.676-2.199-18.676-2.199v-20.521Z"/><path class="cls-8" d="m241.222,102.151h50.051l-2.241,53.501s-3.735.733-11.952-2.199c-6.478-2.311-7.47-4.397-7.47-4.397,0,0,5.229-16.857-9.711-24.185-9.088-4.458-18.676-2.199-18.676-2.199v-20.521Z"/><path class="cls-8" d="m200.882,102.151l-7.47,50.57s12.699,3.664,20.17,2.199c13.145-2.579,14.941-5.13,14.941-5.13,0,0-5.044-5.438,2.241-17.589,7.47-12.459,20.17-10.26,20.17-10.26l9.711-19.788h-59.762Z"/><path class="cls-8" d="m362.24,102.151l-7.47,50.57s12.699,3.664,20.17,2.199c13.145-2.579,14.941-5.13,14.941-5.13,0,0-5.044-5.438,2.241-17.589,7.47-12.459,20.17-10.26,20.17-10.26l9.711-19.788h-59.762Z"/><path class="cls-8" d="m281.24,102.5l-7.47,50.57s12.699,3.664,20.17,2.199c13.145-2.579,14.941-5.13,14.941-5.13,0,0-5.044-5.438,2.241-17.589,7.47-12.459,20.17-10.26,20.17-10.26l9.711-19.788h-59.762Z"/><path class="cls-8" d="m442.919,102.151l-7.47,50.57s12.699,3.664,20.17,2.199c13.145-2.579,14.941-5.13,14.941-5.13,0,0-6.025-6.083,2.241-17.589,16.849-23.453,35.904-.733,35.904-.733-3.156-4.923-9.215-9.059-12.459-13.925-5.863-8.795-2.912-10.786-5.863-15.391h-47.463Z"/><path class="cls-4" d="m410.041,121.808c12.025,0,21.773,9.564,21.773,21.361s-9.748,21.361-21.773,21.361-21.773-9.564-21.773-21.361,9.748-21.361,21.773-21.361"/><path class="cls-4" d="m490.782,121.808c12.025,0,21.773,9.564,21.773,21.361s-9.748,21.361-21.773,21.361-21.773-9.564-21.773-21.361,9.748-21.361,21.773-21.361"/><path class="cls-2" d="m427.517,155.91s4.519,8.62,23.348,8.62c17.237,0,22.441-8.62,22.441-8.62"/><path class="cls-2" d="m430.925,149.221s6.332,6.285,19.486,6.285,19.485-6.285,19.485-6.285"/><path class="cls-2" d="m346.777,155.91s4.519,8.62,23.348,8.62c17.237,0,22.441-8.62,22.441-8.62"/><path class="cls-2" d="m350.185,149.221s6.332,6.285,19.486,6.285,19.485-6.285,19.485-6.285"/><path class="cls-4" d="m248.56,121.808c12.025,0,21.773,9.564,21.773,21.361s-9.748,21.361-21.773,21.361-21.773-9.564-21.773-21.361,9.748-21.361,21.773-21.361"/><path class="cls-4" d="m329.301,121.808c12.025,0,21.773,9.564,21.773,21.361s-9.748,21.361-21.773,21.361-21.773-9.564-21.773-21.361,9.748-21.361,21.773-21.361"/><path class="cls-2" d="m266.036,155.91s4.519,8.62,23.348,8.62c17.237,0,22.441-8.62,22.441-8.62"/><path class="cls-2" d="m269.444,149.221s6.332,6.285,19.486,6.285,19.485-6.285,19.485-6.285"/><path class="cls-2" d="m185.296,155.91s4.519,8.62,23.348,8.62c17.237,0,22.441-8.62,22.441-8.62"/><path class="cls-2" d="m188.704,149.221s6.332,6.285,19.486,6.285,19.485-6.285,19.485-6.285"/><path class="cls-2" d="m346.777,155.91s4.519,8.62,23.348,8.62c17.237,0,22.441-8.62,22.441-8.62"/><path class="cls-2" d="m350.185,149.221s6.332,6.285,19.486,6.285,19.485-6.285,19.485-6.285"/><path class="cls-2" d="m346.777,155.91s4.519,8.62,23.348,8.62c17.237,0,22.441-8.62,22.441-8.62"/><path class="cls-2" d="m350.185,149.221s6.332,6.285,19.486,6.285,19.485-6.285,19.485-6.285"/><path class="cls-4" d="m167.82,121.808c12.025,0,21.773,9.564,21.773,21.361s-9.748,21.361-21.773,21.361-21.773-9.564-21.773-21.361,9.748-21.361,21.773-21.361"/><path class="cls-2" d="m185.296,155.91s4.519,8.62,23.348,8.62c17.237,0,22.441-8.62,22.441-8.62"/><path class="cls-2" d="m188.704,149.221s6.332,6.285,19.486,6.285,19.485-6.285,19.485-6.285"/><path class="cls-2" d="m185.296,155.91s4.519,8.62,23.348,8.62c17.237,0,22.441-8.62,22.441-8.62"/><path class="cls-2" d="m188.704,149.221s6.332,6.285,19.486,6.285,19.485-6.285,19.485-6.285"/><rect class="cls-4" x="225.534" y="89.508" width="70.221" height="12.644"/><rect class="cls-4" x="155.534" y="89.508" width="70.221" height="12.644"/><rect class="cls-4" x="85.534" y="89.508" width="70.221" height="12.644"/><rect class="cls-4" x="15.534" y="89.508" width="70.221" height="12.644"/><rect class="cls-4" x="-2" y="89.508" width="17.755" height="12.644"/><rect class="cls-4" x="295.755" y="89.508" width="70.221" height="12.644"/><rect class="cls-4" x="365.976" y="89.508" width="70.221" height="12.644"/><rect class="cls-4" x="436.196" y="89.508" width="54.186" height="12.644"/><rect class="cls-4" x="261.392" y="76.864" width="70.221" height="12.644"/><rect class="cls-4" x="191.392" y="76.864" width="70.221" height="12.644"/><rect class="cls-4" x="121.392" y="76.864" width="70.221" height="12.644"/><rect class="cls-4" x="51.392" y="76.864" width="70.221" height="12.644"/><rect class="cls-4" x="-2" y="76.864" width="53.612" height="12.644"/><rect class="cls-4" x="331.612" y="76.864" width="70.221" height="12.644"/><rect class="cls-4" x="401.833" y="76.864" width="70.221" height="12.644"/><rect class="cls-4" x="472.19" y="76.864" width="30.651" height="12.644"/><path class="cls-2" d="m490.382,102.151s1.872,8.494,5.13,13.925c4.397,7.329,6.596,8.795,6.596,8.795"/><path class="cls-2" d="m103.777,155.91s4.519,8.62,23.348,8.62c17.237,0,22.441-8.62,22.441-8.62"/><path class="cls-2" d="m107.185,149.221s6.332,6.285,19.486,6.285,19.485-6.285,19.485-6.285"/><path class="cls-4" d="m5.56,121.808c12.025,0,21.773,9.564,21.773,21.361s-9.748,21.361-21.773,21.361-21.773-9.564-21.773-21.361,9.748-21.361,21.773-21.361"/><path class="cls-4" d="m86.301,121.808c12.025,0,21.773,9.564,21.773,21.361s-9.748,21.361-21.773,21.361-21.773-9.564-21.773-21.361,9.748-21.361,21.773-21.361"/><path class="cls-2" d="m23.036,155.91s4.519,8.62,23.348,8.62c17.237,0,22.441-8.62,22.441-8.62"/><path class="cls-2" d="m26.444,149.221s6.332,6.285,19.486,6.285,19.485-6.285,19.485-6.285"/><path class="cls-2" d="m103.777,155.91s4.519,8.62,23.348,8.62c17.237,0,22.441-8.62,22.441-8.62"/><path class="cls-2" d="m107.185,149.221s6.332,6.285,19.486,6.285,19.485-6.285,19.485-6.285"/><path class="cls-2" d="m103.777,155.91s4.519,8.62,23.348,8.62c17.237,0,22.441-8.62,22.441-8.62"/><path class="cls-2" d="m107.185,149.221s6.332,6.285,19.486,6.285,19.485-6.285,19.485-6.285"/></g><g class="cls-5"><path class="cls-8" d="m1925,101.5h-55.941s2.241,53.501,2.241,53.501c0,0,3.735.733,11.952-2.199,6.478-2.311,7.47-4.397,7.47-4.397,0,0-5.229-16.857,9.711-24.185,9.088-4.458,24.566,1.28,24.566,1.28v-24Z"/><path class="cls-8" d="m1797.869,102.151l7.47,50.57s-12.699,3.664-20.17,2.199c-13.145-2.579-14.941-5.13-14.941-5.13,0,0,5.044-5.438-2.241-17.589-7.47-12.459-20.17-10.26-20.17-10.26l-9.711-19.788h59.762Z"/><path class="cls-8" d="m1756.567,102.151h-50.051s2.241,53.501,2.241,53.501c0,0,3.735.733,11.952-2.199,6.478-2.311,7.47-4.397,7.47-4.397,0,0-5.229-16.857,9.711-24.185,9.088-4.458,18.676-2.199,18.676-2.199v-20.521Z"/><path class="cls-8" d="m1766.789,102.239l-.39,53.813s-5.639,3.541-8.909,1.772c-5.754-3.113-6.392-5.87-6.392-5.87,0,0,2.643-5.621.18-18.715-2.526-13.426-8.403-11.46-8.403-11.46l-3.041-21.261,26.955,1.721Z"/><line class="cls-6" x1="1796.467" y1="154.813" x2="1796.467" y2="117.804"/><path class="cls-8" d="m1838.209,102.151h-50.051s2.241,53.501,2.241,53.501c0,0,3.735.733,11.952-2.199,6.478-2.311,7.47-4.397,7.47-4.397,0,0-5.229-16.857,9.711-24.185,9.088-4.458,18.676-2.199,18.676-2.199v-20.521Z"/><path class="cls-8" d="m1877.801,102.884l6.723,49.837s-11.952,4.397-19.423,2.932c-13.145-2.579-13.446-5.863-13.446-5.863,0,0,5.044-4.705-2.241-16.857-7.47-12.459-21.664-10.26-21.664-10.26l-9.711-19.788h59.762Z"/><path class="cls-8" d="m1514.53,102.151h-50.051s2.241,53.501,2.241,53.501c0,0,3.735.733,11.952-2.199,6.478-2.311,7.47-4.397,7.47-4.397,0,0-5.229-16.857,9.711-24.185,9.088-4.458,18.676-2.199,18.676-2.199v-20.521Z"/><path class="cls-8" d="m1595.209,102.151h-50.051s2.241,53.501,2.241,53.501c0,0,3.735.733,11.952-2.199,6.478-2.311,7.47-4.397,7.47-4.397,0,0-5.229-16.857,9.711-24.185,9.088-4.458,18.676-2.199,18.676-2.199v-20.521Z"/><path class="cls-8" d="m1675.888,102.151h-50.051s2.241,53.501,2.241,53.501c0,0,3.735.733,11.952-2.199,6.478-2.311,7.47-4.397,7.47-4.397,0,0-5.229-16.857,9.711-24.185,9.088-4.458,18.676-2.199,18.676-2.199v-20.521Z"/><path class="cls-8" d="m1716.227,102.151l7.47,50.57s-12.699,3.664-20.17,2.199c-13.145-2.579-14.941-5.13-14.941-5.13,0,0,5.044-5.438-2.241-17.589-7.47-12.459-20.17-10.26-20.17-10.26l-9.711-19.788h59.762Z"/><path class="cls-8" d="m1636.227,102.5l7.47,50.57s-12.699,3.664-20.17,2.199c-13.145-2.579-14.941-5.13-14.941-5.13,0,0,5.044-5.438-2.241-17.589-7.47-12.459-20.17-10.26-20.17-10.26l-9.711-19.788h59.762Z"/><path class="cls-8" d="m1554.869,102.151l7.47,50.57s-12.699,3.664-20.17,2.199c-13.145-2.579-14.941-5.13-14.941-5.13,0,0,5.044-5.438-2.241-17.589-7.47-12.459-20.17-10.26-20.17-10.26l-9.711-19.788h59.762Z"/><path class="cls-8" d="m1474.19,102.151l7.47,50.57s-12.699,3.664-20.17,2.199c-13.145-2.579-14.941-5.13-14.941-5.13,0,0,6.025-6.083-2.241-17.589-16.849-23.453-35.904-.733-35.904-.733,3.156-4.923,9.215-9.059,12.459-13.925,5.863-8.795,2.912-10.786,5.863-15.391,16.065,0,31.398,0,47.463,0Z"/><path class="cls-4" d="m1507.068,121.808c-12.025,0-21.773,9.564-21.773,21.361,0,11.797,9.748,21.361,21.773,21.361s21.773-9.564,21.773-21.361c0-11.797-9.748-21.361-21.773-21.361"/><path class="cls-4" d="m1426.328,121.808c-12.025,0-21.773,9.564-21.773,21.361,0,11.797,9.748,21.361,21.773,21.361,12.025,0,21.773-9.564,21.773-21.361,0-11.797-9.748-21.361-21.773-21.361"/><path class="cls-2" d="m1489.593,155.91s-4.519,8.62-23.348,8.62c-17.237,0-22.441-8.62-22.441-8.62"/><path class="cls-2" d="m1486.185,149.221s-6.332,6.285-19.486,6.285c-13.154,0-19.485-6.285-19.485-6.285"/><path class="cls-2" d="m1570.333,155.91s-4.519,8.62-23.348,8.62c-17.237,0-22.441-8.62-22.441-8.62"/><path class="cls-2" d="m1566.925,149.221s-6.332,6.285-19.486,6.285c-13.154,0-19.485-6.285-19.485-6.285"/><path class="cls-4" d="m1668.549,121.808c-12.025,0-21.773,9.564-21.773,21.361s9.748,21.361,21.773,21.361c12.025,0,21.773-9.564,21.773-21.361,0-11.797-9.748-21.361-21.773-21.361"/><path class="cls-4" d="m1587.809,121.808c-12.025,0-21.773,9.564-21.773,21.361s9.748,21.361,21.773,21.361c12.025,0,21.773-9.564,21.773-21.361,0-11.797-9.748-21.361-21.773-21.361"/><path class="cls-2" d="m1651.074,155.91s-4.519,8.62-23.348,8.62c-17.237,0-22.441-8.62-22.441-8.62"/><path class="cls-2" d="m1647.666,149.221s-6.332,6.285-19.486,6.285-19.485-6.285-19.485-6.285"/><path class="cls-2" d="m1731.814,155.91s-4.519,8.62-23.348,8.62c-17.237,0-22.441-8.62-22.441-8.62"/><path class="cls-2" d="m1728.406,149.221s-6.332,6.285-19.486,6.285c-13.154,0-19.485-6.285-19.485-6.285"/><path class="cls-2" d="m1570.333,155.91s-4.519,8.62-23.348,8.62c-17.237,0-22.441-8.62-22.441-8.62"/><path class="cls-2" d="m1566.925,149.221s-6.332,6.285-19.486,6.285c-13.154,0-19.485-6.285-19.485-6.285"/><path class="cls-2" d="m1570.333,155.91s-4.519,8.62-23.348,8.62c-17.237,0-22.441-8.62-22.441-8.62"/><path class="cls-2" d="m1566.925,149.221s-6.332,6.285-19.486,6.285c-13.154,0-19.485-6.285-19.485-6.285"/><path class="cls-4" d="m1749.29,121.808c-12.025,0-21.773,9.564-21.773,21.361,0,11.797,9.748,21.361,21.773,21.361,12.025,0,21.773-9.564,21.773-21.361s-9.748-21.361-21.773-21.361"/><path class="cls-2" d="m1731.814,155.91s-4.519,8.62-23.348,8.62c-17.237,0-22.441-8.62-22.441-8.62"/><path class="cls-2" d="m1728.406,149.221s-6.332,6.285-19.486,6.285c-13.154,0-19.485-6.285-19.485-6.285"/><path class="cls-2" d="m1731.814,155.91s-4.519,8.62-23.348,8.62c-17.237,0-22.441-8.62-22.441-8.62"/><path class="cls-2" d="m1728.406,149.221s-6.332,6.285-19.486,6.285c-13.154,0-19.485-6.285-19.485-6.285"/><rect class="cls-4" x="1621.355" y="89.508" width="70.221" height="12.644" transform="translate(3312.93 191.659) rotate(-180)"/><rect class="cls-4" x="1691.355" y="89.508" width="70.221" height="12.644" transform="translate(3452.93 191.659) rotate(-180)"/><rect class="cls-4" x="1761.355" y="89.508" width="70.221" height="12.644" transform="translate(3592.93 191.659) rotate(-180)"/><rect class="cls-4" x="1831.355" y="89.508" width="70.221" height="12.644" transform="translate(3732.93 191.659) rotate(-180)"/><rect class="cls-4" x="1901.355" y="89.508" width="23.645" height="12.644" transform="translate(3826.355 191.659) rotate(-180)"/><rect class="cls-4" x="1551.134" y="89.508" width="70.221" height="12.644" transform="translate(3172.489 191.659) rotate(-180)"/><rect class="cls-4" x="1480.914" y="89.508" width="70.221" height="12.644" transform="translate(3032.048 191.659) rotate(-180)"/><rect class="cls-4" x="1426.727" y="89.508" width="54.186" height="12.644" transform="translate(2907.641 191.659) rotate(-180)"/><rect class="cls-4" x="1585.498" y="76.864" width="70.221" height="12.644" transform="translate(3241.216 166.371) rotate(-180)"/><rect class="cls-4" x="1655.498" y="76.864" width="70.221" height="12.644" transform="translate(3381.216 166.371) rotate(-180)"/><rect class="cls-4" x="1725.498" y="76.864" width="70.221" height="12.644" transform="translate(3521.216 166.371) rotate(-180)"/><rect class="cls-4" x="1795.498" y="76.864" width="70.221" height="12.644" transform="translate(3661.216 166.371) rotate(-180)"/><rect class="cls-4" x="1865.498" y="76.864" width="59.502" height="12.644" transform="translate(3790.498 166.371) rotate(-180)"/><rect class="cls-4" x="1515.277" y="76.864" width="70.221" height="12.644" transform="translate(3100.774 166.371) rotate(-180)"/><rect class="cls-4" x="1445.056" y="76.864" width="70.221" height="12.644" transform="translate(2960.333 166.371) rotate(-180)"/><rect class="cls-4" x="1414.268" y="76.864" width="30.651" height="12.644"/><path class="cls-2" d="m1426.727,102.151s-1.872,8.494-5.13,13.925c-4.397,7.329-6.596,8.795-6.596,8.795"/><path class="cls-2" d="m1813.333,155.91s-4.519,8.62-23.348,8.62c-17.237,0-22.441-8.62-22.441-8.62"/><path class="cls-2" d="m1809.925,149.221s-6.332,6.285-19.486,6.285c-13.154,0-19.485-6.285-19.485-6.285"/><path class="cls-4" d="m1911.549,121.808c-12.025,0-21.773,9.564-21.773,21.361s9.748,21.361,21.773,21.361,21.773-9.564,21.773-21.361"/><path class="cls-4" d="m1830.809,121.808c-12.025,0-21.773,9.564-21.773,21.361s9.748,21.361,21.773,21.361c12.025,0,21.773-9.564,21.773-21.361,0-11.797-9.748-21.361-21.773-21.361"/><path class="cls-2" d="m1894.074,155.91s-4.519,8.62-23.348,8.62c-17.237,0-22.441-8.62-22.441-8.62"/><path class="cls-2" d="m1890.666,149.221s-6.332,6.285-19.486,6.285-19.485-6.285-19.485-6.285"/><path class="cls-2" d="m1813.333,155.91s-4.519,8.62-23.348,8.62c-17.237,0-22.441-8.62-22.441-8.62"/><path class="cls-2" d="m1809.925,149.221s-6.332,6.285-19.486,6.285c-13.154,0-19.485-6.285-19.485-6.285"/><path class="cls-2" d="m1813.333,155.91s-4.519,8.62-23.348,8.62c-17.237,0-22.441-8.62-22.441-8.62"/><path class="cls-2" d="m1809.925,149.221s-6.332,6.285-19.486,6.285c-13.154,0-19.485-6.285-19.485-6.285"/><line class="cls-6" x1="1776.303" y1="166.813" x2="1776.303" y2="129.804"/><rect class="cls-4" x="1906.302" y="93.209" width="17.809" height="12.644" transform="translate(3830.413 199.062) rotate(-180)"/><path class="cls-2" d="m1899.021,159.612s-4.519,8.62-23.348,8.62c-17.237,0-22.441-8.62-22.441-8.62"/><path class="cls-2" d="m1895.613,152.923s-6.332,6.285-19.486,6.285c-13.154,0-19.485-6.285-19.485-6.285"/><path class="cls-4" d="m1901.381,124.896c13.541,0,24.518,10.769,24.518,24.054s-10.977,24.054-24.518,24.054-24.518-10.769-24.518-24.054,10.977-24.054,24.518-24.054"/><path class="cls-2" d="m1830.14,163.298s5.089,9.706,26.292,9.706c19.41,0,25.27-9.706,25.27-9.706"/><path class="cls-2" d="m1833.978,155.766s7.13,7.077,21.943,7.077,21.942-7.077,21.942-7.077"/><path class="cls-1" d="m1919.964,76.163s-3.607-12.197-6.775-12.945-14.892,0-14.892,0v10.219l-15.85,12.159,8.655,8.28-.618,10.901,15.132,3.406,7.572,5.45,6.775-16.351,9.632,4.088,6.31-13.111s-1.412-8.076-6.31-9.372-9.632-2.725-9.632-2.725Z"/><path class="cls-1" d="m1901.807,109.175s-3.607-12.197-6.775-12.945-14.892,0-14.892,0v10.219l-15.85,12.159,8.655,8.28-.618,10.901,15.132,3.406,7.572,5.45,6.775-16.351,9.632,4.088,6.31-13.111s-1.412-8.076-6.31-9.372c-4.898-1.296-9.632-2.725-9.632-2.725Z"/><path class="cls-3" d="m1933.169,105.049s-3.607-12.197-6.775-12.945-14.892,0-14.892,0v10.219l-15.85,12.159,8.655,8.28-.618,10.901,15.132,3.406,7.572,5.45,6.775-16.351,9.632,4.088,6.31-13.111s-1.412-8.076-6.31-9.372-9.632-2.725-9.632-2.725Z"/><path class="cls-3" d="m1924.916,133.109s-3.607-12.197-6.775-12.945-14.892,0-14.892,0v10.219l-15.85,12.159,8.655,8.28-.618,10.901,15.132,3.406,7.572,5.45,6.775-16.351,9.632,4.088,6.31-13.111s-1.412-8.076-6.31-9.372-9.632-2.725-9.632-2.725Z"/><path class="cls-3" d="m1898.506,150.44s-3.607-12.197-6.775-12.945c-3.168-.748-14.892,0-14.892,0v10.219l-15.85,12.159,8.655,8.28-.618,10.901,15.132,3.406,7.572,5.45,6.775-16.351,9.632,4.088,6.31-13.111s-1.412-8.076-6.31-9.372-9.632-2.725-9.632-2.725Z"/><path class="cls-3" d="m1903.667,213.44s-3.607-12.197-6.775-12.945-14.892,0-14.892,0v10.219l-15.85,12.159,8.655,8.28-.618,10.901,15.132,3.406,7.572,5.45,16.108-12.411.298.148,6.31-13.111s-1.412-8.076-6.31-9.372c-4.898-1.296-9.632-2.725-9.632-2.725Z"/><path class="cls-3" d="m1892.667,181.44s-3.607-12.197-6.775-12.945-14.892,0-14.892,0v10.219l-15.85,12.159,8.655,8.28-.618,10.901,15.132,3.406,15.681-.961,5,1,3.298-6.852,6.31-13.111s-1.412-8.076-6.31-9.372c-4.898-1.296-9.632-2.725-9.632-2.725Z"/><path class="cls-3" d="m1851.464,173.548s-3.607-12.197-6.775-12.945c-3.168-.748-14.892,0-14.892,0v10.219l-15.85,12.159,8.655,8.28-.618,10.901,15.132,3.406,7.572,5.45,6.775-16.351,9.632,4.088,6.31-13.111s-1.412-8.076-6.31-9.372c-4.898-1.296-9.632-2.725-9.632-2.725Z"/><path class="cls-3" d="m1873.667,157.771s-3.607-12.197-6.775-12.945-14.892,0-14.892,0v10.219l-15.85,12.159,6.85,8.295,1.188,10.886,15.132,3.406,7.572,5.45,6.775-16.351,9.632,4.088,6.31-13.111s-1.412-8.076-6.31-9.372c-4.898-1.296-9.632-2.725-9.632-2.725Z"/><path class="cls-3" d="m1919.667,202.91s-3.607-12.197-6.775-12.945-14.892,0-14.892,0v10.219l-15.85,12.159,8.655,8.28-.618,10.901,15.132,3.406,7.572,5.45,6.775-16.351,9.632,4.088,6.31-13.111s-1.412-8.076-6.31-9.372c-4.898-1.296-9.632-2.725-9.632-2.725Z"/><path class="cls-1" d="m1931.518,168.597s-3.607-12.197-6.775-12.945-14.892,0-14.892,0v10.219l-15.85,12.159,8.655,8.28-.618,10.901,15.132,3.406,7.572,5.45,6.775-16.351,9.632,4.088,6.31-13.111s-1.412-8.076-6.31-9.372c-4.898-1.296-9.632-2.725-9.632-2.725Z"/><path class="cls-1" d="m1864.667,192.006s-3.607-12.197-6.775-12.945-14.892,0-14.892,0v10.219l-15.85,12.159,8.655,8.28-.618,10.901,15.132,3.406,7.572,5.45,6.775-16.351,9.632,4.088,6.31-13.111s-1.412-8.076-6.31-9.372c-4.898-1.296-9.632-2.725-9.632-2.725Z"/><path class="cls-3" d="m1845.667,152.217s-3.607-12.197-6.775-12.945-14.892,0-14.892,0v10.219l-15.85,12.159,8.655,8.28-.618,10.901,15.132,3.406,7.572,5.45,6.775-16.351,9.632,4.088,6.31-13.111s-1.412-8.076-6.31-9.372-9.632-2.725-9.632-2.725Z"/><path class="cls-1" d="m1804.422,173.548s-3.607-12.197-6.775-12.945-14.892,0-14.892,0v10.219l-15.85,12.159,8.655,8.28-.618,10.901,15.132,3.406,7.572,5.45,6.775-16.351,9.632,4.088,6.31-13.111s-1.412-8.076-6.31-9.372-9.632-2.725-9.632-2.725Z"/><path class="cls-1" d="m1930.693,292.391s-3.607-12.197-6.775-12.945c-3.168-.748-14.892,0-14.892,0v10.219l-15.85,12.159,8.655,8.28-.618,10.901,15.132,3.406,7.572,5.45,6.775-16.351,9.632,4.088,6.31-13.111s-1.412-8.076-6.31-9.372-9.632-2.725-9.632-2.725Z"/><path class="cls-3" d="m1838.259,191.705s-3.607-12.197-6.775-12.945-14.892,0-14.892,0v10.219l-15.85,12.159,8.655,8.28-.618,10.901,15.132,3.406,7.572,5.45,6.775-16.351,9.632,4.088,6.31-13.111s-1.412-8.076-6.31-9.372-9.632-2.725-9.632-2.725Z"/><path class="cls-3" d="m1882.825,223.066s-3.607-12.197-6.775-12.945-14.892,0-14.892,0v10.219l-15.85,12.159,8.655,8.28-.618,10.901,15.132,3.406,7.572,5.45,6.775-16.351,9.632,4.088,6.31-13.111s-1.412-8.076-6.31-9.372-9.632-2.725-9.632-2.725Z"/><path class="cls-3" d="m1926.667,238.572s-3.607-12.197-6.775-12.945-14.892,0-14.892,0v10.219l-15.85,12.159,8.655,8.28-.618,10.901,15.132,3.406,7.572,5.45,6.775-16.351,9.632,4.088,6.31-13.111s-1.412-8.076-6.31-9.372-9.632-2.725-9.632-2.725Z"/><path class="cls-3" d="m1907.584,271.759s-3.607-12.197-6.775-12.945c-3.168-.748-14.892,0-14.892,0v10.219l-15.85,12.159,8.655,8.28-.618,10.901,15.132,3.406,7.572,5.45,6.775-16.351,9.632,4.088,6.31-13.111s-1.412-8.076-6.31-9.372c-4.898-1.296-9.632-2.725-9.632-2.725Z"/></g></g></svg>