<?xml version="1.0" encoding="UTF-8"?><svg id="_레이어_2" xmlns="http://www.w3.org/2000/svg" xmlns:xlink="http://www.w3.org/1999/xlink" viewBox="0 0 1967.36 419"><defs><style>.cls-1{fill:#86a945;}.cls-1,.cls-2,.cls-3,.cls-4{stroke:#000;stroke-miterlimit:10;stroke-width:2px;}.cls-5{clip-path:url(#clippath-1);}.cls-2,.cls-6{fill:none;}.cls-7{clip-path:url(#clippath);}.cls-3{fill:#b3c648;}.cls-4{fill:#fff;}.cls-8{fill:#597d8b;}</style><clipPath id="clippath"><rect class="cls-6" x="17.21" y="17.5" width="613" height="292"/></clipPath><clipPath id="clippath-1"><rect class="cls-6" x="1270.71" width="667" height="419"/></clipPath></defs><g id="_레이어_1-2"><g class="cls-7"><path class="cls-8" d="m15.21,101.5h50.05l-2.24,53.5s-3.74.73-11.95-2.2c-6.48-2.31-7.47-4.4-7.47-4.4,0,0,5.23-16.86-9.71-24.19-9.09-4.46-18.68-2.2-18.68-2.2v-20.52Z"/><path class="cls-8" d="m136.45,102.15l-7.47,50.57s12.7,3.66,20.17,2.2c13.14-2.58,14.94-5.13,14.94-5.13,0,0-5.04-5.44,2.24-17.59s20.17-10.26,20.17-10.26l9.71-19.79h-59.76Z"/><path class="cls-8" d="m177.76,102.15h50.05l-2.24,53.5s-3.74.73-11.95-2.2c-6.48-2.31-7.47-4.4-7.47-4.4,0,0,5.23-16.86-9.71-24.19-9.09-4.46-18.68-2.2-18.68-2.2v-20.52Z"/><path class="cls-8" d="m167.53,102.24l.39,53.81s5.64,3.54,8.91,1.77c5.75-3.11,6.39-5.87,6.39-5.87,0,0-2.64-5.62-.18-18.71,2.53-13.43,8.4-11.46,8.4-11.46l3.04-21.26-26.96,1.72Z"/><path class="cls-8" d="m96.11,102.15h50.05l-2.24,53.5s-3.74.73-11.95-2.2c-6.48-2.31-7.47-4.4-7.47-4.4,0,0,5.23-16.86-9.71-24.19-9.09-4.46-18.68-2.2-18.68-2.2v-20.52Z"/><path class="cls-8" d="m56.52,102.88l-6.72,49.84s11.95,4.4,19.42,2.93c13.14-2.58,13.45-5.86,13.45-5.86,0,0-5.04-4.71,2.24-16.86,7.47-12.46,21.66-10.26,21.66-10.26l9.71-19.79h-59.76Z"/><path class="cls-8" d="m419.79,102.15h50.05l-2.24,53.5s-3.74.73-11.95-2.2c-6.48-2.31-7.47-4.4-7.47-4.4,0,0,5.23-16.86-9.71-24.19-9.09-4.46-18.68-2.2-18.68-2.2v-20.52Z"/><path class="cls-8" d="m339.11,102.15h50.05l-2.24,53.5s-3.74.73-11.95-2.2c-6.48-2.31-7.47-4.4-7.47-4.4,0,0,5.23-16.86-9.71-24.19-9.09-4.46-18.68-2.2-18.68-2.2v-20.52Z"/><path class="cls-8" d="m258.43,102.15h50.05l-2.24,53.5s-3.74.73-11.95-2.2c-6.48-2.31-7.47-4.4-7.47-4.4,0,0,5.23-16.86-9.71-24.19-9.09-4.46-18.68-2.2-18.68-2.2v-20.52Z"/><path class="cls-8" d="m218.09,102.15l-7.47,50.57s12.7,3.66,20.17,2.2c13.14-2.58,14.94-5.13,14.94-5.13,0,0-5.04-5.44,2.24-17.59s20.17-10.26,20.17-10.26l9.71-19.79h-59.76Z"/><path class="cls-8" d="m379.45,102.15l-7.47,50.57s12.7,3.66,20.17,2.2c13.14-2.58,14.94-5.13,14.94-5.13,0,0-5.04-5.44,2.24-17.59s20.17-10.26,20.17-10.26l9.71-19.79h-59.76Z"/><path class="cls-8" d="m298.45,102.5l-7.47,50.57s12.7,3.66,20.17,2.2c13.14-2.58,14.94-5.13,14.94-5.13,0,0-5.04-5.44,2.24-17.59s20.17-10.26,20.17-10.26l9.71-19.79h-59.76Z"/><path class="cls-8" d="m460.13,102.15l-7.47,50.57s12.7,3.66,20.17,2.2c13.14-2.58,14.94-5.13,14.94-5.13,0,0-6.03-6.08,2.24-17.59,16.85-23.45,35.9-.73,35.9-.73-3.16-4.92-9.22-9.06-12.46-13.92-5.86-8.79-2.91-10.79-5.86-15.39h-47.46Z"/><path class="cls-4" d="m427.25,121.81c12.02,0,21.77,9.56,21.77,21.36s-9.75,21.36-21.77,21.36-21.77-9.56-21.77-21.36,9.75-21.36,21.77-21.36"/><path class="cls-4" d="m507.99,121.81c12.02,0,21.77,9.56,21.77,21.36s-9.75,21.36-21.77,21.36-21.77-9.56-21.77-21.36,9.75-21.36,21.77-21.36"/><path class="cls-2" d="m444.73,155.91s4.52,8.62,23.35,8.62c17.24,0,22.44-8.62,22.44-8.62"/><path class="cls-2" d="m448.14,149.22s6.33,6.28,19.49,6.28,19.49-6.28,19.49-6.28"/><path class="cls-2" d="m363.99,155.91s4.52,8.62,23.35,8.62c17.24,0,22.44-8.62,22.44-8.62"/><path class="cls-2" d="m367.4,149.22s6.33,6.28,19.49,6.28,19.49-6.28,19.49-6.28"/><path class="cls-4" d="m265.77,121.81c12.02,0,21.77,9.56,21.77,21.36s-9.75,21.36-21.77,21.36-21.77-9.56-21.77-21.36,9.75-21.36,21.77-21.36"/><path class="cls-4" d="m346.51,121.81c12.02,0,21.77,9.56,21.77,21.36s-9.75,21.36-21.77,21.36-21.77-9.56-21.77-21.36,9.75-21.36,21.77-21.36"/><path class="cls-2" d="m283.25,155.91s4.52,8.62,23.35,8.62c17.24,0,22.44-8.62,22.44-8.62"/><path class="cls-2" d="m286.66,149.22s6.33,6.28,19.49,6.28,19.49-6.28,19.49-6.28"/><path class="cls-2" d="m202.51,155.91s4.52,8.62,23.35,8.62c17.24,0,22.44-8.62,22.44-8.62"/><path class="cls-2" d="m205.92,149.22s6.33,6.28,19.49,6.28,19.49-6.28,19.49-6.28"/><path class="cls-2" d="m363.99,155.91s4.52,8.62,23.35,8.62c17.24,0,22.44-8.62,22.44-8.62"/><path class="cls-2" d="m367.4,149.22s6.33,6.28,19.49,6.28,19.49-6.28,19.49-6.28"/><path class="cls-2" d="m363.99,155.91s4.52,8.62,23.35,8.62c17.24,0,22.44-8.62,22.44-8.62"/><path class="cls-2" d="m367.4,149.22s6.33,6.28,19.49,6.28,19.49-6.28,19.49-6.28"/><path class="cls-4" d="m185.03,121.81c12.02,0,21.77,9.56,21.77,21.36s-9.75,21.36-21.77,21.36-21.77-9.56-21.77-21.36,9.75-21.36,21.77-21.36"/><path class="cls-2" d="m202.51,155.91s4.52,8.62,23.35,8.62c17.24,0,22.44-8.62,22.44-8.62"/><path class="cls-2" d="m205.92,149.22s6.33,6.28,19.49,6.28,19.49-6.28,19.49-6.28"/><path class="cls-2" d="m202.51,155.91s4.52,8.62,23.35,8.62c17.24,0,22.44-8.62,22.44-8.62"/><path class="cls-2" d="m205.92,149.22s6.33,6.28,19.49,6.28,19.49-6.28,19.49-6.28"/><rect class="cls-4" x="242.75" y="89.51" width="70.22" height="12.64"/><rect class="cls-4" x="172.75" y="89.51" width="70.22" height="12.64"/><rect class="cls-4" x="102.75" y="89.51" width="70.22" height="12.64"/><rect class="cls-4" x="32.75" y="89.51" width="70.22" height="12.64"/><rect class="cls-4" x="15.21" y="89.51" width="17.75" height="12.64"/><rect class="cls-4" x="312.97" y="89.51" width="70.22" height="12.64"/><rect class="cls-4" x="383.19" y="89.51" width="70.22" height="12.64"/><rect class="cls-4" x="453.41" y="89.51" width="54.19" height="12.64"/><rect class="cls-4" x="278.6" y="76.86" width="70.22" height="12.64"/><rect class="cls-4" x="208.6" y="76.86" width="70.22" height="12.64"/><rect class="cls-4" x="138.6" y="76.86" width="70.22" height="12.64"/><rect class="cls-4" x="68.6" y="76.86" width="70.22" height="12.64"/><rect class="cls-4" x="15.21" y="76.86" width="53.61" height="12.64"/><rect class="cls-4" x="348.82" y="76.86" width="70.22" height="12.64"/><rect class="cls-4" x="419.05" y="76.86" width="70.22" height="12.64"/><rect class="cls-4" x="489.4" y="76.86" width="30.65" height="12.64"/><path class="cls-2" d="m507.59,102.15s1.87,8.49,5.13,13.92c4.4,7.33,6.6,8.79,6.6,8.79"/><path class="cls-2" d="m120.99,155.91s4.52,8.62,23.35,8.62c17.24,0,22.44-8.62,22.44-8.62"/><path class="cls-2" d="m124.4,149.22s6.33,6.28,19.49,6.28,19.49-6.28,19.49-6.28"/><path class="cls-4" d="m22.77,121.81c12.02,0,21.77,9.56,21.77,21.36s-9.75,21.36-21.77,21.36S1,154.97,1,143.17s9.75-21.36,21.77-21.36"/><path class="cls-4" d="m103.51,121.81c12.02,0,21.77,9.56,21.77,21.36s-9.75,21.36-21.77,21.36-21.77-9.56-21.77-21.36,9.75-21.36,21.77-21.36"/><path class="cls-2" d="m40.25,155.91s4.52,8.62,23.35,8.62c17.24,0,22.44-8.62,22.44-8.62"/><path class="cls-2" d="m43.66,149.22s6.33,6.28,19.49,6.28,19.49-6.28,19.49-6.28"/><path class="cls-2" d="m120.99,155.91s4.52,8.62,23.35,8.62c17.24,0,22.44-8.62,22.44-8.62"/><path class="cls-2" d="m124.4,149.22s6.33,6.28,19.49,6.28,19.49-6.28,19.49-6.28"/><path class="cls-2" d="m120.99,155.91s4.52,8.62,23.35,8.62c17.24,0,22.44-8.62,22.44-8.62"/><path class="cls-2" d="m124.4,149.22s6.33,6.28,19.49,6.28,19.49-6.28,19.49-6.28"/></g><g class="cls-5"><path class="cls-8" d="m1942.21,101.5h-55.94s2.24,53.5,2.24,53.5c0,0,3.74.73,11.95-2.2,6.48-2.31,7.47-4.4,7.47-4.4,0,0-5.23-16.86,9.71-24.19,9.09-4.46,24.57,1.28,24.57,1.28v-24Z"/><path class="cls-8" d="m1815.08,102.15l7.47,50.57s-12.7,3.66-20.17,2.2c-13.14-2.58-14.94-5.13-14.94-5.13,0,0,5.04-5.44-2.24-17.59-7.47-12.46-20.17-10.26-20.17-10.26l-9.71-19.79h59.76Z"/><path class="cls-8" d="m1773.78,102.15h-50.05s2.24,53.5,2.24,53.5c0,0,3.74.73,11.95-2.2,6.48-2.31,7.47-4.4,7.47-4.4,0,0-5.23-16.86,9.71-24.19,9.09-4.46,18.68-2.2,18.68-2.2v-20.52Z"/><path class="cls-8" d="m1784,102.24l-.39,53.81s-5.64,3.54-8.91,1.77c-5.75-3.11-6.39-5.87-6.39-5.87,0,0,2.64-5.62.18-18.71-2.53-13.43-8.4-11.46-8.4-11.46l-3.04-21.26,26.96,1.72Z"/><line class="cls-6" x1="1813.68" y1="154.81" x2="1813.68" y2="117.8"/><path class="cls-8" d="m1855.42,102.15h-50.05s2.24,53.5,2.24,53.5c0,0,3.74.73,11.95-2.2,6.48-2.31,7.47-4.4,7.47-4.4,0,0-5.23-16.86,9.71-24.19,9.09-4.46,18.68-2.2,18.68-2.2v-20.52Z"/><path class="cls-8" d="m1895.01,102.88l6.72,49.84s-11.95,4.4-19.42,2.93c-13.14-2.58-13.45-5.86-13.45-5.86,0,0,5.04-4.71-2.24-16.86-7.47-12.46-21.66-10.26-21.66-10.26l-9.71-19.79h59.76Z"/><path class="cls-8" d="m1531.74,102.15h-50.05s2.24,53.5,2.24,53.5c0,0,3.74.73,11.95-2.2,6.48-2.31,7.47-4.4,7.47-4.4,0,0-5.23-16.86,9.71-24.19,9.09-4.46,18.68-2.2,18.68-2.2v-20.52Z"/><path class="cls-8" d="m1612.42,102.15h-50.05s2.24,53.5,2.24,53.5c0,0,3.74.73,11.95-2.2,6.48-2.31,7.47-4.4,7.47-4.4,0,0-5.23-16.86,9.71-24.19,9.09-4.46,18.68-2.2,18.68-2.2v-20.52Z"/><path class="cls-8" d="m1693.1,102.15h-50.05s2.24,53.5,2.24,53.5c0,0,3.74.73,11.95-2.2,6.48-2.31,7.47-4.4,7.47-4.4,0,0-5.23-16.86,9.71-24.19,9.09-4.46,18.68-2.2,18.68-2.2v-20.52Z"/><path class="cls-8" d="m1733.44,102.15l7.47,50.57s-12.7,3.66-20.17,2.2c-13.14-2.58-14.94-5.13-14.94-5.13,0,0,5.04-5.44-2.24-17.59-7.47-12.46-20.17-10.26-20.17-10.26l-9.71-19.79h59.76Z"/><path class="cls-8" d="m1653.44,102.5l7.47,50.57s-12.7,3.66-20.17,2.2c-13.14-2.58-14.94-5.13-14.94-5.13,0,0,5.04-5.44-2.24-17.59-7.47-12.46-20.17-10.26-20.17-10.26l-9.71-19.79h59.76Z"/><path class="cls-8" d="m1572.08,102.15l7.47,50.57s-12.7,3.66-20.17,2.2c-13.14-2.58-14.94-5.13-14.94-5.13,0,0,5.04-5.44-2.24-17.59-7.47-12.46-20.17-10.26-20.17-10.26l-9.71-19.79h59.76Z"/><path class="cls-8" d="m1491.4,102.15l7.47,50.57s-12.7,3.66-20.17,2.2c-13.14-2.58-14.94-5.13-14.94-5.13,0,0,6.03-6.08-2.24-17.59-16.85-23.45-35.9-.73-35.9-.73,3.16-4.92,9.22-9.06,12.46-13.92,5.86-8.79,2.91-10.79,5.86-15.39,16.07,0,31.4,0,47.46,0Z"/><path class="cls-4" d="m1524.28,121.81c-12.02,0-21.77,9.56-21.77,21.36,0,11.8,9.75,21.36,21.77,21.36s21.77-9.56,21.77-21.36c0-11.8-9.75-21.36-21.77-21.36"/><path class="cls-4" d="m1443.54,121.81c-12.02,0-21.77,9.56-21.77,21.36,0,11.8,9.75,21.36,21.77,21.36,12.02,0,21.77-9.56,21.77-21.36,0-11.8-9.75-21.36-21.77-21.36"/><path class="cls-2" d="m1506.8,155.91s-4.52,8.62-23.35,8.62c-17.24,0-22.44-8.62-22.44-8.62"/><path class="cls-2" d="m1503.4,149.22s-6.33,6.28-19.49,6.28c-13.15,0-19.49-6.28-19.49-6.28"/><path class="cls-2" d="m1587.55,155.91s-4.52,8.62-23.35,8.62c-17.24,0-22.44-8.62-22.44-8.62"/><path class="cls-2" d="m1584.14,149.22s-6.33,6.28-19.49,6.28c-13.15,0-19.49-6.28-19.49-6.28"/><path class="cls-4" d="m1685.76,121.81c-12.02,0-21.77,9.56-21.77,21.36s9.75,21.36,21.77,21.36c12.02,0,21.77-9.56,21.77-21.36,0-11.8-9.75-21.36-21.77-21.36"/><path class="cls-4" d="m1605.02,121.81c-12.02,0-21.77,9.56-21.77,21.36s9.75,21.36,21.77,21.36c12.02,0,21.77-9.56,21.77-21.36,0-11.8-9.75-21.36-21.77-21.36"/><path class="cls-2" d="m1668.29,155.91s-4.52,8.62-23.35,8.62c-17.24,0-22.44-8.62-22.44-8.62"/><path class="cls-2" d="m1664.88,149.22s-6.33,6.28-19.49,6.28-19.49-6.28-19.49-6.28"/><path class="cls-2" d="m1749.03,155.91s-4.52,8.62-23.35,8.62c-17.24,0-22.44-8.62-22.44-8.62"/><path class="cls-2" d="m1745.62,149.22s-6.33,6.28-19.49,6.28c-13.15,0-19.49-6.28-19.49-6.28"/><path class="cls-2" d="m1587.55,155.91s-4.52,8.62-23.35,8.62c-17.24,0-22.44-8.62-22.44-8.62"/><path class="cls-2" d="m1584.14,149.22s-6.33,6.28-19.49,6.28c-13.15,0-19.49-6.28-19.49-6.28"/><path class="cls-2" d="m1587.55,155.91s-4.52,8.62-23.35,8.62c-17.24,0-22.44-8.62-22.44-8.62"/><path class="cls-2" d="m1584.14,149.22s-6.33,6.28-19.49,6.28c-13.15,0-19.49-6.28-19.49-6.28"/><path class="cls-4" d="m1766.5,121.81c-12.02,0-21.77,9.56-21.77,21.36,0,11.8,9.75,21.36,21.77,21.36,12.02,0,21.77-9.56,21.77-21.36s-9.75-21.36-21.77-21.36"/><path class="cls-2" d="m1749.03,155.91s-4.52,8.62-23.35,8.62c-17.24,0-22.44-8.62-22.44-8.62"/><path class="cls-2" d="m1745.62,149.22s-6.33,6.28-19.49,6.28c-13.15,0-19.49-6.28-19.49-6.28"/><path class="cls-2" d="m1749.03,155.91s-4.52,8.62-23.35,8.62c-17.24,0-22.44-8.62-22.44-8.62"/><path class="cls-2" d="m1745.62,149.22s-6.33,6.28-19.49,6.28c-13.15,0-19.49-6.28-19.49-6.28"/><rect class="cls-4" x="1638.57" y="89.51" width="70.22" height="12.64" transform="translate(3347.36 191.66) rotate(-180)"/><rect class="cls-4" x="1708.57" y="89.51" width="70.22" height="12.64" transform="translate(3487.36 191.66) rotate(-180)"/><rect class="cls-4" x="1778.57" y="89.51" width="70.22" height="12.64" transform="translate(3627.36 191.66) rotate(-180)"/><rect class="cls-4" x="1848.57" y="89.51" width="70.22" height="12.64" transform="translate(3767.36 191.66) rotate(-180)"/><rect class="cls-4" x="1918.57" y="89.51" width="23.65" height="12.64" transform="translate(3860.78 191.66) rotate(-180)"/><rect class="cls-4" x="1568.35" y="89.51" width="70.22" height="12.64" transform="translate(3206.91 191.66) rotate(-180)"/><rect class="cls-4" x="1498.13" y="89.51" width="70.22" height="12.64" transform="translate(3066.47 191.66) rotate(-180)"/><rect class="cls-4" x="1443.94" y="89.51" width="54.19" height="12.64" transform="translate(2942.07 191.66) rotate(-180)"/><rect class="cls-4" x="1602.71" y="76.86" width="70.22" height="12.64" transform="translate(3275.64 166.37) rotate(-180)"/><rect class="cls-4" x="1672.71" y="76.86" width="70.22" height="12.64" transform="translate(3415.64 166.37) rotate(-180)"/><rect class="cls-4" x="1742.71" y="76.86" width="70.22" height="12.64" transform="translate(3555.64 166.37) rotate(-180)"/><rect class="cls-4" x="1812.71" y="76.86" width="70.22" height="12.64" transform="translate(3695.64 166.37) rotate(-180)"/><rect class="cls-4" x="1882.71" y="76.86" width="59.5" height="12.64" transform="translate(3824.92 166.37) rotate(-180)"/><rect class="cls-4" x="1532.49" y="76.86" width="70.22" height="12.64" transform="translate(3135.2 166.37) rotate(-180)"/><rect class="cls-4" x="1462.27" y="76.86" width="70.22" height="12.64" transform="translate(2994.76 166.37) rotate(-180)"/><rect class="cls-4" x="1431.48" y="76.86" width="30.65" height="12.64"/><path class="cls-2" d="m1443.94,102.15s-1.87,8.49-5.13,13.92c-4.4,7.33-6.6,8.79-6.6,8.79"/><path class="cls-2" d="m1830.55,155.91s-4.52,8.62-23.35,8.62c-17.24,0-22.44-8.62-22.44-8.62"/><path class="cls-2" d="m1827.14,149.22s-6.33,6.28-19.49,6.28c-13.15,0-19.49-6.28-19.49-6.28"/><path class="cls-4" d="m1928.76,121.81c-12.02,0-21.77,9.56-21.77,21.36s9.75,21.36,21.77,21.36,21.77-9.56,21.77-21.36"/><path class="cls-4" d="m1848.02,121.81c-12.02,0-21.77,9.56-21.77,21.36s9.75,21.36,21.77,21.36c12.02,0,21.77-9.56,21.77-21.36,0-11.8-9.75-21.36-21.77-21.36"/><path class="cls-2" d="m1911.29,155.91s-4.52,8.62-23.35,8.62c-17.24,0-22.44-8.62-22.44-8.62"/><path class="cls-2" d="m1907.88,149.22s-6.33,6.28-19.49,6.28-19.49-6.28-19.49-6.28"/><path class="cls-2" d="m1830.55,155.91s-4.52,8.62-23.35,8.62c-17.24,0-22.44-8.62-22.44-8.62"/><path class="cls-2" d="m1827.14,149.22s-6.33,6.28-19.49,6.28c-13.15,0-19.49-6.28-19.49-6.28"/><path class="cls-2" d="m1830.55,155.91s-4.52,8.62-23.35,8.62c-17.24,0-22.44-8.62-22.44-8.62"/><path class="cls-2" d="m1827.14,149.22s-6.33,6.28-19.49,6.28c-13.15,0-19.49-6.28-19.49-6.28"/><line class="cls-6" x1="1793.52" y1="166.81" x2="1793.52" y2="129.8"/><rect class="cls-4" x="1923.51" y="93.21" width="17.81" height="12.64" transform="translate(3864.84 199.06) rotate(-180)"/><path class="cls-2" d="m1916.23,159.61s-4.52,8.62-23.35,8.62c-17.24,0-22.44-8.62-22.44-8.62"/><path class="cls-2" d="m1912.83,152.92s-6.33,6.28-19.49,6.28c-13.15,0-19.49-6.28-19.49-6.28"/><path class="cls-4" d="m1918.59,124.9c13.54,0,24.52,10.77,24.52,24.05s-10.98,24.05-24.52,24.05-24.52-10.77-24.52-24.05,10.98-24.05,24.52-24.05"/><path class="cls-2" d="m1847.35,163.3s5.09,9.71,26.29,9.71c19.41,0,25.27-9.71,25.27-9.71"/><path class="cls-2" d="m1851.19,155.77s7.13,7.08,21.94,7.08,21.94-7.08,21.94-7.08"/><path class="cls-1" d="m1937.18,76.16s-3.61-12.2-6.77-12.94-14.89,0-14.89,0v10.22l-15.85,12.16,8.66,8.28-.62,10.9,15.13,3.41,7.57,5.45,6.77-16.35,9.63,4.09,6.31-13.11s-1.41-8.08-6.31-9.37-9.63-2.73-9.63-2.73Z"/><path class="cls-1" d="m1919.02,109.18s-3.61-12.2-6.77-12.94-14.89,0-14.89,0v10.22l-15.85,12.16,8.66,8.28-.62,10.9,15.13,3.41,7.57,5.45,6.77-16.35,9.63,4.09,6.31-13.11s-1.41-8.08-6.31-9.37c-4.9-1.3-9.63-2.73-9.63-2.73Z"/><path class="cls-3" d="m1950.38,105.05s-3.61-12.2-6.77-12.94-14.89,0-14.89,0v10.22l-15.85,12.16,8.66,8.28-.62,10.9,15.13,3.41,7.57,5.45,6.77-16.35,9.63,4.09,6.31-13.11s-1.41-8.08-6.31-9.37-9.63-2.73-9.63-2.73Z"/><path class="cls-3" d="m1942.13,133.11s-3.61-12.2-6.77-12.94-14.89,0-14.89,0v10.22l-15.85,12.16,8.66,8.28-.62,10.9,15.13,3.41,7.57,5.45,6.77-16.35,9.63,4.09,6.31-13.11s-1.41-8.08-6.31-9.37-9.63-2.73-9.63-2.73Z"/><path class="cls-3" d="m1915.72,150.44s-3.61-12.2-6.77-12.94c-3.17-.75-14.89,0-14.89,0v10.22l-15.85,12.16,8.66,8.28-.62,10.9,15.13,3.41,7.57,5.45,6.77-16.35,9.63,4.09,6.31-13.11s-1.41-8.08-6.31-9.37-9.63-2.73-9.63-2.73Z"/><path class="cls-3" d="m1920.88,213.44s-3.61-12.2-6.77-12.94-14.89,0-14.89,0v10.22l-15.85,12.16,8.66,8.28-.62,10.9,15.13,3.41,7.57,5.45,16.11-12.41.3.15,6.31-13.11s-1.41-8.08-6.31-9.37c-4.9-1.3-9.63-2.73-9.63-2.73Z"/><path class="cls-3" d="m1909.88,181.44s-3.61-12.2-6.77-12.94-14.89,0-14.89,0v10.22l-15.85,12.16,8.66,8.28-.62,10.9,15.13,3.41,15.68-.96,5,1,3.3-6.85,6.31-13.11s-1.41-8.08-6.31-9.37c-4.9-1.3-9.63-2.73-9.63-2.73Z"/><path class="cls-3" d="m1868.68,173.55s-3.61-12.2-6.77-12.94c-3.17-.75-14.89,0-14.89,0v10.22l-15.85,12.16,8.66,8.28-.62,10.9,15.13,3.41,7.57,5.45,6.77-16.35,9.63,4.09,6.31-13.11s-1.41-8.08-6.31-9.37c-4.9-1.3-9.63-2.73-9.63-2.73Z"/><path class="cls-3" d="m1890.88,157.77s-3.61-12.2-6.77-12.94-14.89,0-14.89,0v10.22l-15.85,12.16,6.85,8.29,1.19,10.89,15.13,3.41,7.57,5.45,6.77-16.35,9.63,4.09,6.31-13.11s-1.41-8.08-6.31-9.37c-4.9-1.3-9.63-2.73-9.63-2.73Z"/><path class="cls-3" d="m1936.88,202.91s-3.61-12.2-6.77-12.94-14.89,0-14.89,0v10.22l-15.85,12.16,8.66,8.28-.62,10.9,15.13,3.41,7.57,5.45,6.77-16.35,9.63,4.09,6.31-13.11s-1.41-8.08-6.31-9.37c-4.9-1.3-9.63-2.73-9.63-2.73Z"/><path class="cls-1" d="m1948.73,168.6s-3.61-12.2-6.77-12.94-14.89,0-14.89,0v10.22l-15.85,12.16,8.66,8.28-.62,10.9,15.13,3.41,7.57,5.45,6.77-16.35,9.63,4.09,6.31-13.11s-1.41-8.08-6.31-9.37c-4.9-1.3-9.63-2.73-9.63-2.73Z"/><path class="cls-1" d="m1881.88,192.01s-3.61-12.2-6.77-12.94-14.89,0-14.89,0v10.22l-15.85,12.16,8.66,8.28-.62,10.9,15.13,3.41,7.57,5.45,6.77-16.35,9.63,4.09,6.31-13.11s-1.41-8.08-6.31-9.37c-4.9-1.3-9.63-2.73-9.63-2.73Z"/><path class="cls-3" d="m1862.88,152.22s-3.61-12.2-6.77-12.94-14.89,0-14.89,0v10.22l-15.85,12.16,8.66,8.28-.62,10.9,15.13,3.41,7.57,5.45,6.77-16.35,9.63,4.09,6.31-13.11s-1.41-8.08-6.31-9.37-9.63-2.73-9.63-2.73Z"/><path class="cls-1" d="m1821.63,173.55s-3.61-12.2-6.77-12.94-14.89,0-14.89,0v10.22l-15.85,12.16,8.66,8.28-.62,10.9,15.13,3.41,7.57,5.45,6.77-16.35,9.63,4.09,6.31-13.11s-1.41-8.08-6.31-9.37-9.63-2.73-9.63-2.73Z"/><path class="cls-1" d="m1947.91,292.39s-3.61-12.2-6.77-12.94c-3.17-.75-14.89,0-14.89,0v10.22l-15.85,12.16,8.66,8.28-.62,10.9,15.13,3.41,7.57,5.45,6.77-16.35,9.63,4.09,6.31-13.11s-1.41-8.08-6.31-9.37-9.63-2.73-9.63-2.73Z"/><path class="cls-3" d="m1855.47,191.7s-3.61-12.2-6.77-12.94-14.89,0-14.89,0v10.22l-15.85,12.16,8.66,8.28-.62,10.9,15.13,3.41,7.57,5.45,6.77-16.35,9.63,4.09,6.31-13.11s-1.41-8.08-6.31-9.37-9.63-2.73-9.63-2.73Z"/><path class="cls-3" d="m1900.04,223.07s-3.61-12.2-6.77-12.94-14.89,0-14.89,0v10.22l-15.85,12.16,8.66,8.28-.62,10.9,15.13,3.41,7.57,5.45,6.77-16.35,9.63,4.09,6.31-13.11s-1.41-8.08-6.31-9.37-9.63-2.73-9.63-2.73Z"/><path class="cls-3" d="m1943.88,238.57s-3.61-12.2-6.77-12.94-14.89,0-14.89,0v10.22l-15.85,12.16,8.66,8.28-.62,10.9,15.13,3.41,7.57,5.45,6.77-16.35,9.63,4.09,6.31-13.11s-1.41-8.08-6.31-9.37-9.63-2.73-9.63-2.73Z"/><path class="cls-3" d="m1924.8,271.76s-3.61-12.2-6.77-12.94c-3.17-.75-14.89,0-14.89,0v10.22l-15.85,12.16,8.66,8.28-.62,10.9,15.13,3.41,7.57,5.45,6.77-16.35,9.63,4.09,6.31-13.11s-1.41-8.08-6.31-9.37c-4.9-1.3-9.63-2.73-9.63-2.73Z"/></g></g></svg>