<?xml version="1.0" encoding="UTF-8"?><svg id="_레이어_1" xmlns="http://www.w3.org/2000/svg" viewBox="0 0 3401.57 1984.25"><defs><style>.cls-1{stroke-linecap:square;}.cls-1,.cls-2,.cls-3,.cls-4{fill:none;stroke:#231815;stroke-width:8px;}.cls-1,.cls-4{stroke-miterlimit:10;}.cls-2{stroke-linecap:round;}.cls-2,.cls-3{stroke-linejoin:round;}.cls-5{fill:#e3e3e4;}</style></defs><rect class="cls-5" width="3401.57" height="1984.25"/><polyline class="cls-1" points="134.79 1854.62 134.59 361.83 269.97 361.83 269.97 89.85 361.13 89.85 361.13 176.4 133.96 176.4 133.96 89.85 218.17 89.85 218.17 321.43 133.34 321.43 133.34 234.41 400.49 234.41 400.49 89.85 2870.06 89.85"/><line class="cls-1" x1="83.55" y1="1881.77" x2="83.34" y2="361.83"/><polyline class="cls-1" points="3266.79 1854.62 3266.99 361.83 3131.61 361.83 3131.61 89.85 3040.45 89.85 3040.45 176.4 3267.61 176.4 3267.61 89.85 3183.4 89.85 3183.4 321.43 3268.24 321.43 3268.24 234.41 3001.08 234.41 3001.08 89.85 531.51 89.85"/><line class="cls-1" x1="3318.03" y1="1881.77" x2="3318.23" y2="388.98"/><path class="cls-1" d="M134.71,1869.99s709.34-97.7,1566.18-97.94c862.73-.24,1565.98,97.94,1565.98,97.94"/><path class="cls-3" d="M2901.66,1585.51s-46.99-61.54-95.32-73.4c-48.33-11.87-88.13-10.84-121.01-22.24-32.88-11.41-63.39-27.16-63.39-27.16,0,0,52.81,71.11,124.77,102.09,71.95,30.97,156.9,21.86,156.9,21.86l364.63,211.9"/><path class="cls-3" d="M3213.54,1766.84s-54.03,32.01-101.55,43.97c-47.52,11.96-58.15-6.49-108.99-4.51-50.84,1.97-89.52,3.3-89.52,3.3,0,0,74.17-39.9,129.84-50.97,55.67-11.07,116.34-23.1,116.34-23.1,0,0-60.96,4.16-117.12-18.69-56.16-22.85-219.12-40.52-219.12-40.52,0,0,72-18.39,114.69-21.25,42.69-2.86,76.68-3.77,76.68-3.77"/><path class="cls-3" d="M3043.33,1758.62c-39.78,5.4-219.9-82.31-219.9-82.31"/><path class="cls-3" d="M2948.68,1540.26s78.06,55.3,133.82,74.35c55.76,19.05,123.98,157.44,123.98,157.44,0,0-38.49-58.33-65.43-70.19-26.95-11.86-95.72-29.65-136.6-69.68-40.89-40.03-55.76-91.92-55.76-91.92Z"/><path class="cls-3" d="M2977.76,1629.76s-47.45-17.08-69.99-17.92c-22.53-.84-140.25,18.3-190.12,16.63-49.86-1.67-161.71-13.39-161.71-13.39,0,0,92.5-23.34,143.66-26.53,51.16-3.18,119.05-4.66,119.05-4.66"/><path class="cls-3" d="M2555.95,1615.08s61.63,33.74,129.26,40.62c67.63,6.89,231.82-42.22,231.82-42.22"/><path class="cls-3" d="M2641.65,1541.29s-150.68,61.52-192.9,67.1c-42.22,5.58-127.12-26.26-127.12-26.26,0,0,143.57-57.5,208-56.57,64.43,.92,217.07,39.22,217.07,39.22"/><path class="cls-2" d="M902.67,1272.57s-24.99,50.51-92.19,85.14c-67.2,34.63-172.96,68.73-172.96,68.73,0,0,37.19-59.91,134.62-110.12,97.44-50.22,130.53-43.75,130.53-43.75Z"/><path class="cls-2" d="M242.78,1786.7s49.14,33.47,120.61,48.38c71.47,14.91,103.8-4.86,103.8-4.86,0,0-33.3-27.49-72.72-42.09-39.42-14.6-93.81-31.26-93.81-31.26"/><path class="cls-2" d="M502.19,1714.64s109.76-32.57,118.47-61.06c8.71-28.49-64.71-14.17-138.36-4.44-73.65,9.73-176.52,76.51-176.52,76.51"/><path class="cls-2" d="M144.84,1860.7s.97-14.61,43.47-60.04c42.5-45.42,212.11-66.98,293.88-36.21,81.77,30.77,106.98,1.31,106.98,1.31,0,0-49.14-33.47-108.36-61.75-59.22-28.28-250,51.23-250,51.23,0,0-25.11-85.84-29.85-144.55-4.74-58.71,16.89-107.49,16.89-107.49l41.61,138.49-28.65,113.55s41.59-96.7,75.47-158.84c33.88-62.15,87.87-85.27,87.87-85.27l-92.34,217.92s140.46-120.42,173.82-142.32c33.36-21.9,126.29-6.58,126.29-6.58,0,0,221.51,53.73,122.13-43.57-39.1-38.28-231.13,41.26-231.13,41.26l156.01-108.64s92.32,34.74,135.98,28.7c43.66-6.04,85.68-44.16,85.68-44.16,0,0-27.57-16.36-111.05-13.32-83.48,3.04-114.89,31.75-114.89,31.75"/><path class="cls-2" d="M458.02,1330.04s-37.11,47.35-13.92,129.47l23.19,82.13,8.35,45.09s34.56-15.46,26.72-100.79c-7.84-85.34-44.35-155.89-44.35-155.89Z"/><path class="cls-2" d="M638.32,1464.32s-3.93-77-34.6-103.53c-30.68-26.52-64.94-72.37-64.94-72.37l-55.55-107.78s58.99,23.69,107.63,80.94c48.64,57.25,47.46,202.74,47.46,202.74Z"/><path class="cls-4" d="M465.95,471.61s-64.64-45.16-96.57-45.68c-31.93-.52-78.84,26.5-78.84,26.5,0,0,38.11,32.08,69.1,35.04,30.98,2.96,106.32-15.87,106.32-15.87Z"/><path class="cls-4" d="M317.54,528.48s-42.63-12.3-71.52-30.84c-28.89-18.55-42.27-81.5-42.27-81.5,0,0,10.27-14.6,45.96,4.14s26.1,39.33,39.47,55.25c13.37,15.93,28.37,52.95,28.37,52.95Z"/><path class="cls-4" d="M137.48,361.83s4.22,16.62,27.89,30.65c23.67,14.04,38.38,23.65,38.38,23.65"/><path class="cls-2" d="M3021.63,377.23s44.5,2.91,83.45,21.27c38.96,18.36,33.14,99.04,33.14,99.04,0,0-28.69-28.73-44.93-40.8-16.24-12.07-29.41-1.15-44.8-20.71-15.39-19.56-26.86-58.79-26.86-58.79Z"/><path class="cls-2" d="M3268.24,473.77s-106.47,15.85-122.12,20.69c-15.65,4.84-63.87,32.52-63.87,32.52,0,0-22.81-26.52-50.15,7.67-27.34,34.19-5.05,52.72-5.05,52.72,0,0,13.33,24.54,45.95-15.79,19.48-24.08,9.25-44.6,9.25-44.6"/><path class="cls-2" d="M3169.05,684.19s21.9-39.83,21.59-76.48c-.18-21.75-15.35-45.75-19.12-63.17-5.39-24.97-7.59-54.22-7.59-54.22,0,0-23.34,46.2-41.25,85.37-17.92,39.16,46.36,108.5,46.36,108.5Z"/><path class="cls-2" d="M3091.97,1510.82s-166.45-41.66-197.94-138.34,197.94,138.34,197.94,138.34Z"/><path class="cls-2" d="M3266.8,1742.02s-150.1-136.95-176.98-239.27c-26.87-102.31-22.34-88.77-22.34-88.77,0,0-36.82-35.61-70.42-104.53-33.6-68.92-30.79-113.53-30.79-113.53,0,0,44.63,35.24,73.73,84.34,29.1,49.1,27.48,133.72,27.48,133.72"/><path class="cls-2" d="M3120.9,1572.18s-18.53-45.77-12.33-126.37c6.2-80.6,77.53-106.96,77.53-106.96l-24.24,112.67s1.34,8.97-25.28,50.7c-32.99,51.71-15.68,69.96-15.68,69.96Z"/><path class="cls-2" d="M3124.6,1578.23s55.33-43.93,87.47-99.99c32.14-56.07,6.53-94.75,6.53-94.75l-56.74,68.03"/></svg>